<svg xmlns="http://www.w3.org/2000/svg" xmlns:xlink="http://www.w3.org/1999/xlink" version="1.2" width="210.00mm" height="297.00mm" viewBox="0.0000 -0.0000 119.5016 169.0094">
<style type="text/css">
<![CDATA[
tspan { white-space: pre; }
]]>
</style>
<g transform="translate(50.9418, 6.2107)">
<text font-family="serif" font-weight="bold" font-size="3.4927" text-anchor="start" fill="currentColor">
<tspan>Spagnoletta</tspan>
</text>
</g>
<g transform="translate(88.7840, 9.7107)">
<text font-family="serif" font-size="2.2001" text-anchor="start" fill="currentColor">
<tspan>Anonymous in 19th Century</tspan>
</text>
</g>
<g transform="translate(113.6210, 24.5928)">
<rect x="0.0000" y="-2.0000" width="0.1900" height="4.0000" ry="0.0000" fill="currentColor"/>
</g>
<g transform="translate(105.1363, 24.5928)">
<rect x="0.0000" y="-2.0000" width="0.1900" height="4.0000" ry="0.0000" fill="currentColor"/>
</g>
<g transform="translate(14.2264, 26.5928)">
<line stroke-linejoin="round" stroke-linecap="round" stroke-width="0.1000" stroke="currentColor" x1="0.0500" y1="0" x2="99.5346" y2="0"/>
</g>
<g transform="translate(14.2264, 25.5928)">
<line stroke-linejoin="round" stroke-linecap="round" stroke-width="0.1000" stroke="currentColor" x1="0.0500" y1="0" x2="99.5346" y2="0"/>
</g>
<g transform="translate(14.2264, 24.5928)">
<line stroke-linejoin="round" stroke-linecap="round" stroke-width="0.1000" stroke="currentColor" x1="0.0500" y1="0" x2="99.5346" y2="0"/>
</g>
<g transform="translate(14.2264, 23.5928)">
<line stroke-linejoin="round" stroke-linecap="round" stroke-width="0.1000" stroke="currentColor" x1="0.0500" y1="0" x2="99.5346" y2="0"/>
</g>
<g transform="translate(14.2264, 22.5928)">
<line stroke-linejoin="round" stroke-linecap="round" stroke-width="0.1000" stroke="currentColor" x1="0.0500" y1="0" x2="99.5346" y2="0"/>
</g>
<g transform="translate(92.3256, 24.5928)">
<rect x="0.0000" y="-2.0000" width="0.1900" height="4.0000" ry="0.0000" fill="currentColor"/>
</g>
<g transform="translate(81.5717, 24.5928)">
<rect x="0.0000" y="-2.0000" width="0.1900" height="4.0000" ry="0.0000" fill="currentColor"/>
</g>
<g transform="translate(68.7456, 24.5928)">
<rect x="0.0000" y="-2.0000" width="0.1900" height="4.0000" ry="0.0000" fill="currentColor"/>
</g>
<g transform="translate(60.2610, 24.5928)">
<rect x="0.0000" y="-2.0000" width="0.1900" height="4.0000" ry="0.0000" fill="currentColor"/>
</g>
<g transform="translate(47.4502, 24.5928)">
<rect x="0.0000" y="-2.0000" width="0.1900" height="4.0000" ry="0.0000" fill="currentColor"/>
</g>
<g transform="translate(34.6323, 24.5928)">
<rect x="0.0000" y="-2.0000" width="0.1900" height="4.0000" ry="0.0000" fill="currentColor"/>
</g>
<a style="color:inherit;" xlink:href="textedit:///Users/wwang/Documents/ClassicalGuitarLessons/lilypond/Anonymous-in-19th-Century-Spagnoletta.ly:57:4:5">
<g transform="translate(22.8311, 13.2197)">
<text font-family="sans-serif" font-size="2.6163" text-anchor="start" fill="currentColor">
<tspan>N.C.</tspan>
</text>
</g>
</a>
<a style="color:inherit;" xlink:href="textedit:///Users/wwang/Documents/ClassicalGuitarLessons/lilypond/Anonymous-in-19th-Century-Spagnoletta.ly:90:4:5">
<g transform="translate(22.8311, 24.5928)">
<path transform="scale(0.0040, -0.0040)" d="M-6 78c0 59 124 83 124 182c0 24 -8 49 -25 69l-35 42c-3 3 -4 7 -4 10c0 9 9 15 17 15c4 0 8 -1 11 -5l151 -180c7 -9 10 -17 10 -25c0 -59 -124 -83 -124 -182c0 -24 7 -49 24 -69l84 -99c3 -3 4 -7 4 -10c0 -9 -8 -16 -16 -16s-45 44 -109 44c-16 0 -53 0 -53 -67
c0 -35 11 -74 28 -94c7 -8 -5 -19 -12 -11c-45 54 -92 148 -92 202c0 41 27 42 40 42c33 0 78 -13 119 -31l-132 158c-7 9 -10 17 -10 25z" fill="currentColor"/>
</g>
</a>
<g transform="translate(15.0264, 25.5928)">
<path transform="scale(0.0040, -0.0040)" d="M266 -635h-6c-108 0 -195 88 -195 197c0 58 53 103 112 103c54 0 95 -47 95 -103c0 -52 -43 -95 -95 -95c-11 0 -21 2 -31 6c26 -39 68 -65 117 -65h4zM461 -203c68 24 113 90 113 164c0 90 -66 179 -173 190c19 -89 48 -242 60 -354zM74 28c0 -145 141 -247 264 -247
c1 0 47 0 82 6c-7 64 -29 203 -63 364c-79 -8 -124 -61 -124 -119c0 -44 25 -91 81 -123c5 -5 7 -10 7 -15c0 -11 -10 -22 -22 -22c-15 0 -126 62 -126 187c0 88 58 174 160 197c-14 58 -29 117 -46 175c-107 -121 -213 -243 -213 -403zM250 553c-29 96 -52 170 -52 346
c0 115 55 224 149 292c6 5 14 5 20 0c68 -80 133 -245 133 -358c0 -143 -86 -255 -180 -364c21 -68 39 -138 56 -207c2 0 7 1 13 1c155 0 256 -128 256 -261c0 -113 -74 -212 -180 -246c3 -35 5 -70 5 -105c0 -19 -1 -39 -2 -58c-7 -119 -88 -225 -202 -228l1 43
c93 2 153 92 159 191c1 18 2 37 2 55c0 31 -1 61 -4 92c-5 -1 -44 -8 -89 -8c-193 0 -333 180 -333 374c0 177 131 306 248 441zM428 916c0 34 1 66 -20 129c-99 -48 -162 -149 -162 -259c0 -52 12 -115 36 -194c80 97 146 198 146 324z" fill="currentColor"/>
</g>
<a style="color:inherit;" xlink:href="textedit:///Users/wwang/Documents/ClassicalGuitarLessons/lilypond/Anonymous-in-19th-Century-Spagnoletta.ly:88:4:5">
<g transform="translate(19.3630, 24.5928)">
<path transform="scale(0.0040, -0.0040)" d="M263 265c0 -33 70 -23 70 -125c0 -92 -79 -140 -179 -140c-79 0 -154 42 -154 113c0 36 30 66 66 66s65 -30 65 -66c0 -25 -40 -28 -40 -53c0 -27 32 -37 63 -37c49 0 63 61 63 117v16c0 54 -2 94 -50 94h-80c-10 0 -14 8 -14 15s4 14 14 14h80c49 0 50 43 50 99v8
c0 54 -18 91 -67 91c-28 0 -57 -9 -57 -33c0 -22 35 -25 35 -47c0 -32 -25 -58 -57 -58s-58 26 -58 58c0 64 67 103 137 103c91 0 169 -33 169 -114c0 -122 -56 -80 -56 -121z" fill="currentColor"/>
</g>
<g transform="translate(19.2264, 26.6089)">
<path transform="scale(0.0040, -0.0040)" d="M196 117h117c0 -48 27 -94 72 -94c8 0 12 -5 12 -11s-4 -12 -12 -12c-44 0 -87 13 -131 13s-87 -13 -131 -13c-8 0 -12 6 -12 12s4 11 12 11c45 0 73 46 73 94zM-2 148c0 12 140 143 140 336c0 10 7 19 16 16c23 -7 47 -13 71 -13s48 6 71 13c14 4 23 -9 17 -16
l-284 -330h167v131c0 34 34 27 68 72c22 30 23 56 36 56c6 0 13 -5 13 -14v-245h72c10 0 15 -7 15 -14s-5 -15 -15 -15h-72v-8h-117v8h-167c-23 0 -31 14 -31 23z" fill="currentColor"/>
</g>
</a>
<a style="color:inherit;" xlink:href="textedit:///Users/wwang/Documents/ClassicalGuitarLessons/lilypond/Anonymous-in-19th-Century-Spagnoletta.ly:90:7:8">
<g transform="translate(26.5658, 25.0928)">
<path transform="scale(0.0040, -0.0040)" d="M218 136c66 0 108 -36 108 -89c0 -89 -113 -183 -218 -183c-66 0 -108 36 -108 89c0 89 113 183 218 183z" fill="currentColor"/>
</g>
</a>
<g transform="translate(27.8050, 24.5928)">
<rect x="-0.0650" y="-3.0000" width="0.1300" height="3.3139" ry="0.0400" fill="currentColor"/>
</g>
<a style="color:inherit;" xlink:href="textedit:///Users/wwang/Documents/ClassicalGuitarLessons/lilypond/Anonymous-in-19th-Century-Spagnoletta.ly:90:11:12">
<g transform="translate(30.6730, 24.5928)">
<path transform="scale(0.0040, -0.0040)" d="M218 136c66 0 108 -36 108 -89c0 -89 -113 -183 -218 -183c-66 0 -108 36 -108 89c0 89 113 183 218 183z" fill="currentColor"/>
</g>
</a>
<g transform="translate(30.7380, 24.5928)">
<rect x="-0.0650" y="0.1861" width="0.1300" height="3.1472" ry="0.0400" fill="currentColor"/>
</g>
<a style="color:inherit;" xlink:href="textedit:///Users/wwang/Documents/ClassicalGuitarLessons/lilypond/Anonymous-in-19th-Century-Spagnoletta.ly:58:4:5">
<g transform="translate(35.9266, 13.2197)">
<text font-family="sans-serif" font-size="2.6163" text-anchor="start" fill="currentColor">
<tspan>C</tspan>
</text>
</g>
</a>
<a style="color:inherit;" xlink:href="textedit:///Users/wwang/Documents/ClassicalGuitarLessons/lilypond/Anonymous-in-19th-Century-Spagnoletta.ly:78:6:7">
<g transform="translate(34.5393, 14.7483)">
<rect x="4.9750" y="-0.0250" width="0.0500" height="5.0500" ry="0.0250" fill="currentColor"/>
</g>
<g transform="translate(34.5393, 14.7483)">
<rect x="3.9750" y="-0.0250" width="0.0500" height="5.0500" ry="0.0250" fill="currentColor"/>
</g>
<g transform="translate(34.5393, 14.7483)">
<rect x="2.9750" y="-0.0250" width="0.0500" height="5.0500" ry="0.0250" fill="currentColor"/>
</g>
<g transform="translate(34.5393, 14.7483)">
<rect x="1.9750" y="-0.0250" width="0.0500" height="5.0500" ry="0.0250" fill="currentColor"/>
</g>
<g transform="translate(34.5393, 14.7483)">
<rect x="0.9750" y="-0.0250" width="0.0500" height="5.0500" ry="0.0250" fill="currentColor"/>
</g>
<g transform="translate(34.5393, 14.7483)">
<rect x="-0.0250" y="-0.0250" width="0.0500" height="5.0500" ry="0.0250" fill="currentColor"/>
</g>
<g transform="translate(34.5393, 14.7483)">
<line stroke-linejoin="round" stroke-linecap="round" stroke-width="0.0500" stroke="currentColor" x1="0.0000" y1="0.0000" x2="5.0000" y2="0.0000"/>
</g>
<g transform="translate(34.5393, 14.7483)">
<line stroke-linejoin="round" stroke-linecap="round" stroke-width="0.0500" stroke="currentColor" x1="0.0000" y1="1.0000" x2="5.0000" y2="1.0000"/>
</g>
<g transform="translate(34.5393, 14.7483)">
<line stroke-linejoin="round" stroke-linecap="round" stroke-width="0.0500" stroke="currentColor" x1="0.0000" y1="2.0000" x2="5.0000" y2="2.0000"/>
</g>
<g transform="translate(34.5393, 14.7483)">
<line stroke-linejoin="round" stroke-linecap="round" stroke-width="0.0500" stroke="currentColor" x1="0.0000" y1="3.0000" x2="5.0000" y2="3.0000"/>
</g>
<g transform="translate(34.5393, 14.7483)">
<line stroke-linejoin="round" stroke-linecap="round" stroke-width="0.0500" stroke="currentColor" x1="0.0000" y1="4.0000" x2="5.0000" y2="4.0000"/>
</g>
<g transform="translate(35.5393, 17.3483)">
<circle stroke-linejoin="round" stroke-linecap="round" fill="currentColor" stroke="currentColor" stroke-width="0.0500" r="0.2500"/>
</g>
<g transform="translate(35.1125, 21.0279)">
<text font-family="sans-serif" font-size="1.3198" text-anchor="start" fill="currentColor">
<tspan>3</tspan>
</text>
</g>
<g transform="translate(36.5393, 16.3483)">
<circle stroke-linejoin="round" stroke-linecap="round" fill="currentColor" stroke="currentColor" stroke-width="0.0500" r="0.2500"/>
</g>
<g transform="translate(36.1125, 21.0279)">
<text font-family="sans-serif" font-size="1.3198" text-anchor="start" fill="currentColor">
<tspan>2</tspan>
</text>
</g>
<g transform="translate(38.5393, 15.3483)">
<circle stroke-linejoin="round" stroke-linecap="round" fill="currentColor" stroke="currentColor" stroke-width="0.0500" r="0.2500"/>
</g>
<g transform="translate(38.1125, 21.0111)">
<text font-family="sans-serif" font-size="1.3198" text-anchor="start" fill="currentColor">
<tspan>1</tspan>
</text>
</g>
<g transform="translate(34.5393, 14.7483)">
<rect x="-0.0250" y="-0.1250" width="5.0500" height="0.1500" ry="0.0250" fill="currentColor"/>
</g>
<g transform="translate(34.2320, 14.4100)">
<text font-family="sans-serif" font-size="0.8803" text-anchor="start" fill="currentColor">
<tspan>X</tspan>
</text>
</g>
<g transform="translate(37.1979, 14.4100)">
<text font-family="sans-serif" font-size="0.8803" text-anchor="start" fill="currentColor">
<tspan>O</tspan>
</text>
</g>
<g transform="translate(39.1979, 14.4100)">
<text font-family="sans-serif" font-size="0.8803" text-anchor="start" fill="currentColor">
<tspan>O</tspan>
</text>
</g>
</a>
<a style="color:inherit;" xlink:href="textedit:///Users/wwang/Documents/ClassicalGuitarLessons/lilypond/Anonymous-in-19th-Century-Spagnoletta.ly:91:4:5">
<g transform="translate(35.9266, 24.0928)">
<path transform="scale(0.0040, -0.0040)" d="M218 136c66 0 108 -36 108 -89c0 -89 -113 -183 -218 -183c-66 0 -108 36 -108 89c0 89 113 183 218 183z" fill="currentColor"/>
</g>
</a>
<g transform="translate(37.6809, 24.0928)">
<path transform="scale(0.0040, -0.0040)" d="M0 0c0 31 25 56 56 56s56 -25 56 -56s-25 -56 -56 -56s-56 25 -56 56z" fill="currentColor"/>
</g>
<g transform="translate(35.9916, 24.5928)">
<rect x="-0.0650" y="-0.3139" width="0.1300" height="3.3139" ry="0.0400" fill="currentColor"/>
</g>
<a style="color:inherit;" xlink:href="textedit:///Users/wwang/Documents/ClassicalGuitarLessons/lilypond/Anonymous-in-19th-Century-Spagnoletta.ly:91:9:10">
<g transform="translate(40.8300, 24.5928)">
<path transform="scale(0.0040, -0.0040)" d="M218 136c66 0 108 -36 108 -89c0 -89 -113 -183 -218 -183c-66 0 -108 36 -108 89c0 89 113 183 218 183z" fill="currentColor"/>
</g>
</a>
<g transform="translate(40.8950, 24.5928)">
<rect x="-0.0650" y="0.1861" width="0.1300" height="3.1889" ry="0.0400" fill="currentColor"/>
</g>
<g transform="translate(40.9600, 27.9278)">
<path transform="scale(0.0040, -0.0040)" d="M0 0h-16v250h16v-250zM0 0v250c97 59 224 148 224 259c0 57 -15 112 -40 163c-3 16 10 27 23 27c7 0 15 -3 20 -11c25 -56 40 -117 40 -179c0 -203 -267 -306 -267 -509z" fill="currentColor"/>
</g>
<a style="color:inherit;" xlink:href="textedit:///Users/wwang/Documents/ClassicalGuitarLessons/lilypond/Anonymous-in-19th-Century-Spagnoletta.ly:91:12:13">
<g transform="translate(43.5266, 24.0928)">
<path transform="scale(0.0040, -0.0040)" d="M218 136c66 0 108 -36 108 -89c0 -89 -113 -183 -218 -183c-66 0 -108 36 -108 89c0 89 113 183 218 183z" fill="currentColor"/>
</g>
</a>
<g transform="translate(43.5916, 24.5928)">
<rect x="-0.0650" y="-0.3139" width="0.1300" height="3.3139" ry="0.0400" fill="currentColor"/>
</g>
<a style="color:inherit;" xlink:href="textedit:///Users/wwang/Documents/ClassicalGuitarLessons/lilypond/Anonymous-in-19th-Century-Spagnoletta.ly:59:4:5">
<g transform="translate(48.7731, 13.2197)">
<text font-family="sans-serif" font-size="2.6163" text-anchor="start" fill="currentColor">
<tspan>G</tspan>
</text>
</g>
<g transform="translate(50.7876, 12.0305)">
<text font-family="sans-serif" font-size="1.8500" text-anchor="start" fill="currentColor">
<tspan>7</tspan>
</text>
</g>
</a>
<a style="color:inherit;" xlink:href="textedit:///Users/wwang/Documents/ClassicalGuitarLessons/lilypond/Anonymous-in-19th-Century-Spagnoletta.ly:79:6:7">
<g transform="translate(47.4438, 14.7483)">
<rect x="4.9750" y="-0.0250" width="0.0500" height="5.0500" ry="0.0250" fill="currentColor"/>
</g>
<g transform="translate(47.4438, 14.7483)">
<rect x="3.9750" y="-0.0250" width="0.0500" height="5.0500" ry="0.0250" fill="currentColor"/>
</g>
<g transform="translate(47.4438, 14.7483)">
<rect x="2.9750" y="-0.0250" width="0.0500" height="5.0500" ry="0.0250" fill="currentColor"/>
</g>
<g transform="translate(47.4438, 14.7483)">
<rect x="1.9750" y="-0.0250" width="0.0500" height="5.0500" ry="0.0250" fill="currentColor"/>
</g>
<g transform="translate(47.4438, 14.7483)">
<rect x="0.9750" y="-0.0250" width="0.0500" height="5.0500" ry="0.0250" fill="currentColor"/>
</g>
<g transform="translate(47.4438, 14.7483)">
<rect x="-0.0250" y="-0.0250" width="0.0500" height="5.0500" ry="0.0250" fill="currentColor"/>
</g>
<g transform="translate(47.4438, 14.7483)">
<line stroke-linejoin="round" stroke-linecap="round" stroke-width="0.0500" stroke="currentColor" x1="0.0000" y1="0.0000" x2="5.0000" y2="0.0000"/>
</g>
<g transform="translate(47.4438, 14.7483)">
<line stroke-linejoin="round" stroke-linecap="round" stroke-width="0.0500" stroke="currentColor" x1="0.0000" y1="1.0000" x2="5.0000" y2="1.0000"/>
</g>
<g transform="translate(47.4438, 14.7483)">
<line stroke-linejoin="round" stroke-linecap="round" stroke-width="0.0500" stroke="currentColor" x1="0.0000" y1="2.0000" x2="5.0000" y2="2.0000"/>
</g>
<g transform="translate(47.4438, 14.7483)">
<line stroke-linejoin="round" stroke-linecap="round" stroke-width="0.0500" stroke="currentColor" x1="0.0000" y1="3.0000" x2="5.0000" y2="3.0000"/>
</g>
<g transform="translate(47.4438, 14.7483)">
<line stroke-linejoin="round" stroke-linecap="round" stroke-width="0.0500" stroke="currentColor" x1="0.0000" y1="4.0000" x2="5.0000" y2="4.0000"/>
</g>
<g transform="translate(47.4438, 17.3483)">
<circle stroke-linejoin="round" stroke-linecap="round" fill="currentColor" stroke="currentColor" stroke-width="0.0500" r="0.2500"/>
</g>
<g transform="translate(47.0170, 21.0279)">
<text font-family="sans-serif" font-size="1.3198" text-anchor="start" fill="currentColor">
<tspan>3</tspan>
</text>
</g>
<g transform="translate(48.4438, 16.3483)">
<circle stroke-linejoin="round" stroke-linecap="round" fill="currentColor" stroke="currentColor" stroke-width="0.0500" r="0.2500"/>
</g>
<g transform="translate(48.0170, 21.0279)">
<text font-family="sans-serif" font-size="1.3198" text-anchor="start" fill="currentColor">
<tspan>2</tspan>
</text>
</g>
<g transform="translate(52.4438, 15.3483)">
<circle stroke-linejoin="round" stroke-linecap="round" fill="currentColor" stroke="currentColor" stroke-width="0.0500" r="0.2500"/>
</g>
<g transform="translate(52.0170, 21.0111)">
<text font-family="sans-serif" font-size="1.3198" text-anchor="start" fill="currentColor">
<tspan>1</tspan>
</text>
</g>
<g transform="translate(47.4438, 14.7483)">
<rect x="-0.0250" y="-0.1250" width="5.0500" height="0.1500" ry="0.0250" fill="currentColor"/>
</g>
<g transform="translate(49.1024, 14.4100)">
<text font-family="sans-serif" font-size="0.8803" text-anchor="start" fill="currentColor">
<tspan>O</tspan>
</text>
</g>
<g transform="translate(50.1024, 14.4100)">
<text font-family="sans-serif" font-size="0.8803" text-anchor="start" fill="currentColor">
<tspan>O</tspan>
</text>
</g>
<g transform="translate(51.1024, 14.4100)">
<text font-family="sans-serif" font-size="0.8803" text-anchor="start" fill="currentColor">
<tspan>O</tspan>
</text>
</g>
</a>
<a style="color:inherit;" xlink:href="textedit:///Users/wwang/Documents/ClassicalGuitarLessons/lilypond/Anonymous-in-19th-Century-Spagnoletta.ly:92:4:5">
<g transform="translate(48.7731, 23.5928)">
<path transform="scale(0.0040, -0.0040)" d="M218 136c66 0 108 -36 108 -89c0 -89 -113 -183 -218 -183c-66 0 -108 36 -108 89c0 89 113 183 218 183z" fill="currentColor"/>
</g>
</a>
<g transform="translate(50.5273, 23.0928)">
<path transform="scale(0.0040, -0.0040)" d="M0 0c0 31 25 56 56 56s56 -25 56 -56s-25 -56 -56 -56s-56 25 -56 56z" fill="currentColor"/>
</g>
<g transform="translate(48.8381, 24.5928)">
<rect x="-0.0650" y="-0.8139" width="0.1300" height="3.3139" ry="0.0400" fill="currentColor"/>
</g>
<a style="color:inherit;" xlink:href="textedit:///Users/wwang/Documents/ClassicalGuitarLessons/lilypond/Anonymous-in-19th-Century-Spagnoletta.ly:92:8:9">
<g transform="translate(53.6765, 24.0928)">
<path transform="scale(0.0040, -0.0040)" d="M218 136c66 0 108 -36 108 -89c0 -89 -113 -183 -218 -183c-66 0 -108 36 -108 89c0 89 113 183 218 183z" fill="currentColor"/>
</g>
</a>
<g transform="translate(53.7415, 24.5928)">
<rect x="-0.0650" y="-0.3139" width="0.1300" height="3.3139" ry="0.0400" fill="currentColor"/>
</g>
<g transform="translate(53.8065, 27.5528)">
<path transform="scale(0.0040, -0.0040)" d="M0 0h-16v250h16v-250zM0 0v250c97 59 224 148 224 259c0 57 -15 112 -40 163c-3 16 10 27 23 27c7 0 15 -3 20 -11c25 -56 40 -117 40 -179c0 -203 -267 -306 -267 -509z" fill="currentColor"/>
</g>
<a style="color:inherit;" xlink:href="textedit:///Users/wwang/Documents/ClassicalGuitarLessons/lilypond/Anonymous-in-19th-Century-Spagnoletta.ly:92:11:12">
<g transform="translate(56.3730, 23.5928)">
<path transform="scale(0.0040, -0.0040)" d="M218 136c66 0 108 -36 108 -89c0 -89 -113 -183 -218 -183c-66 0 -108 36 -108 89c0 89 113 183 218 183z" fill="currentColor"/>
</g>
</a>
<g transform="translate(56.4380, 24.5928)">
<rect x="-0.0650" y="-0.8139" width="0.1300" height="3.3139" ry="0.0400" fill="currentColor"/>
</g>
<a style="color:inherit;" xlink:href="textedit:///Users/wwang/Documents/ClassicalGuitarLessons/lilypond/Anonymous-in-19th-Century-Spagnoletta.ly:60:4:5">
<g transform="translate(62.6083, 13.2197)">
<text font-family="sans-serif" font-size="2.6163" text-anchor="start" fill="currentColor">
<tspan>C</tspan>
</text>
</g>
</a>
<a style="color:inherit;" xlink:href="textedit:///Users/wwang/Documents/ClassicalGuitarLessons/lilypond/Anonymous-in-19th-Century-Spagnoletta.ly:80:6:7">
<g transform="translate(61.2210, 14.7483)">
<rect x="4.9750" y="-0.0250" width="0.0500" height="5.0500" ry="0.0250" fill="currentColor"/>
</g>
<g transform="translate(61.2210, 14.7483)">
<rect x="3.9750" y="-0.0250" width="0.0500" height="5.0500" ry="0.0250" fill="currentColor"/>
</g>
<g transform="translate(61.2210, 14.7483)">
<rect x="2.9750" y="-0.0250" width="0.0500" height="5.0500" ry="0.0250" fill="currentColor"/>
</g>
<g transform="translate(61.2210, 14.7483)">
<rect x="1.9750" y="-0.0250" width="0.0500" height="5.0500" ry="0.0250" fill="currentColor"/>
</g>
<g transform="translate(61.2210, 14.7483)">
<rect x="0.9750" y="-0.0250" width="0.0500" height="5.0500" ry="0.0250" fill="currentColor"/>
</g>
<g transform="translate(61.2210, 14.7483)">
<rect x="-0.0250" y="-0.0250" width="0.0500" height="5.0500" ry="0.0250" fill="currentColor"/>
</g>
<g transform="translate(61.2210, 14.7483)">
<line stroke-linejoin="round" stroke-linecap="round" stroke-width="0.0500" stroke="currentColor" x1="0.0000" y1="0.0000" x2="5.0000" y2="0.0000"/>
</g>
<g transform="translate(61.2210, 14.7483)">
<line stroke-linejoin="round" stroke-linecap="round" stroke-width="0.0500" stroke="currentColor" x1="0.0000" y1="1.0000" x2="5.0000" y2="1.0000"/>
</g>
<g transform="translate(61.2210, 14.7483)">
<line stroke-linejoin="round" stroke-linecap="round" stroke-width="0.0500" stroke="currentColor" x1="0.0000" y1="2.0000" x2="5.0000" y2="2.0000"/>
</g>
<g transform="translate(61.2210, 14.7483)">
<line stroke-linejoin="round" stroke-linecap="round" stroke-width="0.0500" stroke="currentColor" x1="0.0000" y1="3.0000" x2="5.0000" y2="3.0000"/>
</g>
<g transform="translate(61.2210, 14.7483)">
<line stroke-linejoin="round" stroke-linecap="round" stroke-width="0.0500" stroke="currentColor" x1="0.0000" y1="4.0000" x2="5.0000" y2="4.0000"/>
</g>
<g transform="translate(62.2210, 17.3483)">
<circle stroke-linejoin="round" stroke-linecap="round" fill="currentColor" stroke="currentColor" stroke-width="0.0500" r="0.2500"/>
</g>
<g transform="translate(61.7942, 21.0279)">
<text font-family="sans-serif" font-size="1.3198" text-anchor="start" fill="currentColor">
<tspan>3</tspan>
</text>
</g>
<g transform="translate(63.2210, 16.3483)">
<circle stroke-linejoin="round" stroke-linecap="round" fill="currentColor" stroke="currentColor" stroke-width="0.0500" r="0.2500"/>
</g>
<g transform="translate(62.7942, 21.0279)">
<text font-family="sans-serif" font-size="1.3198" text-anchor="start" fill="currentColor">
<tspan>2</tspan>
</text>
</g>
<g transform="translate(65.2210, 15.3483)">
<circle stroke-linejoin="round" stroke-linecap="round" fill="currentColor" stroke="currentColor" stroke-width="0.0500" r="0.2500"/>
</g>
<g transform="translate(64.7942, 21.0111)">
<text font-family="sans-serif" font-size="1.3198" text-anchor="start" fill="currentColor">
<tspan>1</tspan>
</text>
</g>
<g transform="translate(61.2210, 14.7483)">
<rect x="-0.0250" y="-0.1250" width="5.0500" height="0.1500" ry="0.0250" fill="currentColor"/>
</g>
<g transform="translate(60.9137, 14.4100)">
<text font-family="sans-serif" font-size="0.8803" text-anchor="start" fill="currentColor">
<tspan>X</tspan>
</text>
</g>
<g transform="translate(63.8795, 14.4100)">
<text font-family="sans-serif" font-size="0.8803" text-anchor="start" fill="currentColor">
<tspan>O</tspan>
</text>
</g>
<g transform="translate(65.8795, 14.4100)">
<text font-family="sans-serif" font-size="0.8803" text-anchor="start" fill="currentColor">
<tspan>O</tspan>
</text>
</g>
</a>
<a style="color:inherit;" xlink:href="textedit:///Users/wwang/Documents/ClassicalGuitarLessons/lilypond/Anonymous-in-19th-Century-Spagnoletta.ly:93:4:5">
<g transform="translate(62.6083, 23.0928)">
<path transform="scale(0.0040, -0.0040)" d="M314 65c0 23 -19 41 -42 41c-39 0 -204 -110 -231 -143c-7 -8 -10 -18 -10 -28c0 -23 19 -41 42 -41c39 0 203 110 230 143c7 8 11 18 11 28zM262 136c41 0 82 -14 82 -71c0 -26 -16 -112 -74 -151c-25 -17 -87 -50 -187 -50c-41 0 -83 14 -83 71c0 26 16 112 74 151
c25 17 88 50 188 50z" fill="currentColor"/>
</g>
</a>
<g transform="translate(64.4356, 23.0928)">
<path transform="scale(0.0040, -0.0040)" d="M0 0c0 31 25 56 56 56s56 -25 56 -56s-25 -56 -56 -56s-56 25 -56 56z" fill="currentColor"/>
</g>
<g transform="translate(62.6733, 24.5928)">
<rect x="-0.0650" y="-1.2410" width="0.1300" height="3.2410" ry="0.0400" fill="currentColor"/>
</g>
<a style="color:inherit;" xlink:href="textedit:///Users/wwang/Documents/ClassicalGuitarLessons/lilypond/Anonymous-in-19th-Century-Spagnoletta.ly:61:4:5">
<g transform="translate(70.0971, 13.2197)">
<text font-family="sans-serif" font-size="2.6163" text-anchor="start" fill="currentColor">
<tspan>C</tspan>
</text>
</g>
</a>
<a style="color:inherit;" xlink:href="textedit:///Users/wwang/Documents/ClassicalGuitarLessons/lilypond/Anonymous-in-19th-Century-Spagnoletta.ly:81:6:7">
<g transform="translate(68.7098, 14.7483)">
<rect x="4.9750" y="-0.0250" width="0.0500" height="5.0500" ry="0.0250" fill="currentColor"/>
</g>
<g transform="translate(68.7098, 14.7483)">
<rect x="3.9750" y="-0.0250" width="0.0500" height="5.0500" ry="0.0250" fill="currentColor"/>
</g>
<g transform="translate(68.7098, 14.7483)">
<rect x="2.9750" y="-0.0250" width="0.0500" height="5.0500" ry="0.0250" fill="currentColor"/>
</g>
<g transform="translate(68.7098, 14.7483)">
<rect x="1.9750" y="-0.0250" width="0.0500" height="5.0500" ry="0.0250" fill="currentColor"/>
</g>
<g transform="translate(68.7098, 14.7483)">
<rect x="0.9750" y="-0.0250" width="0.0500" height="5.0500" ry="0.0250" fill="currentColor"/>
</g>
<g transform="translate(68.7098, 14.7483)">
<rect x="-0.0250" y="-0.0250" width="0.0500" height="5.0500" ry="0.0250" fill="currentColor"/>
</g>
<g transform="translate(68.7098, 14.7483)">
<line stroke-linejoin="round" stroke-linecap="round" stroke-width="0.0500" stroke="currentColor" x1="0.0000" y1="0.0000" x2="5.0000" y2="0.0000"/>
</g>
<g transform="translate(68.7098, 14.7483)">
<line stroke-linejoin="round" stroke-linecap="round" stroke-width="0.0500" stroke="currentColor" x1="0.0000" y1="1.0000" x2="5.0000" y2="1.0000"/>
</g>
<g transform="translate(68.7098, 14.7483)">
<line stroke-linejoin="round" stroke-linecap="round" stroke-width="0.0500" stroke="currentColor" x1="0.0000" y1="2.0000" x2="5.0000" y2="2.0000"/>
</g>
<g transform="translate(68.7098, 14.7483)">
<line stroke-linejoin="round" stroke-linecap="round" stroke-width="0.0500" stroke="currentColor" x1="0.0000" y1="3.0000" x2="5.0000" y2="3.0000"/>
</g>
<g transform="translate(68.7098, 14.7483)">
<line stroke-linejoin="round" stroke-linecap="round" stroke-width="0.0500" stroke="currentColor" x1="0.0000" y1="4.0000" x2="5.0000" y2="4.0000"/>
</g>
<g transform="translate(69.7098, 17.3483)">
<circle stroke-linejoin="round" stroke-linecap="round" fill="currentColor" stroke="currentColor" stroke-width="0.0500" r="0.2500"/>
</g>
<g transform="translate(69.2830, 21.0279)">
<text font-family="sans-serif" font-size="1.3198" text-anchor="start" fill="currentColor">
<tspan>3</tspan>
</text>
</g>
<g transform="translate(70.7098, 16.3483)">
<circle stroke-linejoin="round" stroke-linecap="round" fill="currentColor" stroke="currentColor" stroke-width="0.0500" r="0.2500"/>
</g>
<g transform="translate(70.2830, 21.0279)">
<text font-family="sans-serif" font-size="1.3198" text-anchor="start" fill="currentColor">
<tspan>2</tspan>
</text>
</g>
<g transform="translate(72.7098, 15.3483)">
<circle stroke-linejoin="round" stroke-linecap="round" fill="currentColor" stroke="currentColor" stroke-width="0.0500" r="0.2500"/>
</g>
<g transform="translate(72.2830, 21.0111)">
<text font-family="sans-serif" font-size="1.3198" text-anchor="start" fill="currentColor">
<tspan>1</tspan>
</text>
</g>
<g transform="translate(68.7098, 14.7483)">
<rect x="-0.0250" y="-0.1250" width="5.0500" height="0.1500" ry="0.0250" fill="currentColor"/>
</g>
<g transform="translate(68.4025, 14.4100)">
<text font-family="sans-serif" font-size="0.8803" text-anchor="start" fill="currentColor">
<tspan>X</tspan>
</text>
</g>
<g transform="translate(71.3684, 14.4100)">
<text font-family="sans-serif" font-size="0.8803" text-anchor="start" fill="currentColor">
<tspan>O</tspan>
</text>
</g>
<g transform="translate(73.3684, 14.4100)">
<text font-family="sans-serif" font-size="0.8803" text-anchor="start" fill="currentColor">
<tspan>O</tspan>
</text>
</g>
</a>
<a style="color:inherit;" xlink:href="textedit:///Users/wwang/Documents/ClassicalGuitarLessons/lilypond/Anonymous-in-19th-Century-Spagnoletta.ly:94:4:5">
<g transform="translate(70.0971, 23.0928)">
<path transform="scale(0.0040, -0.0040)" d="M218 136c66 0 108 -36 108 -89c0 -89 -113 -183 -218 -183c-66 0 -108 36 -108 89c0 89 113 183 218 183z" fill="currentColor"/>
</g>
</a>
<g transform="translate(71.8513, 23.0928)">
<path transform="scale(0.0040, -0.0040)" d="M0 0c0 31 25 56 56 56s56 -25 56 -56s-25 -56 -56 -56s-56 25 -56 56z" fill="currentColor"/>
</g>
<g transform="translate(70.1621, 24.5928)">
<rect x="-0.0650" y="-1.3139" width="0.1300" height="3.3139" ry="0.0400" fill="currentColor"/>
</g>
<a style="color:inherit;" xlink:href="textedit:///Users/wwang/Documents/ClassicalGuitarLessons/lilypond/Anonymous-in-19th-Century-Spagnoletta.ly:94:8:9">
<g transform="translate(75.0005, 22.5928)">
<path transform="scale(0.0040, -0.0040)" d="M218 136c66 0 108 -36 108 -89c0 -89 -113 -183 -218 -183c-66 0 -108 36 -108 89c0 89 113 183 218 183z" fill="currentColor"/>
</g>
</a>
<g transform="translate(75.0655, 24.5928)">
<rect x="-0.0650" y="-1.8139" width="0.1300" height="3.3139" ry="0.0400" fill="currentColor"/>
</g>
<g transform="translate(75.1305, 26.0528)">
<path transform="scale(0.0040, -0.0040)" d="M0 0h-16v250h16v-250zM0 0v250c97 59 224 148 224 259c0 57 -15 112 -40 163c-3 16 10 27 23 27c7 0 15 -3 20 -11c25 -56 40 -117 40 -179c0 -203 -267 -306 -267 -509z" fill="currentColor"/>
</g>
<a style="color:inherit;" xlink:href="textedit:///Users/wwang/Documents/ClassicalGuitarLessons/lilypond/Anonymous-in-19th-Century-Spagnoletta.ly:94:11:12">
<g transform="translate(77.6971, 22.0928)">
<path transform="scale(0.0040, -0.0040)" d="M218 136c66 0 108 -36 108 -89c0 -89 -113 -183 -218 -183c-66 0 -108 36 -108 89c0 89 113 183 218 183z" fill="currentColor"/>
</g>
</a>
<g transform="translate(77.7621, 24.5928)">
<rect x="-0.0650" y="-2.3139" width="0.1300" height="3.3139" ry="0.0400" fill="currentColor"/>
</g>
<a style="color:inherit;" xlink:href="textedit:///Users/wwang/Documents/ClassicalGuitarLessons/lilypond/Anonymous-in-19th-Century-Spagnoletta.ly:62:4:5">
<g transform="translate(82.9190, 13.2197)">
<text font-family="sans-serif" font-size="2.6163" text-anchor="start" fill="currentColor">
<tspan>G</tspan>
</text>
</g>
<g transform="translate(84.9335, 12.0305)">
<text font-family="sans-serif" font-size="1.8500" text-anchor="start" fill="currentColor">
<tspan>7</tspan>
</text>
</g>
</a>
<a style="color:inherit;" xlink:href="textedit:///Users/wwang/Documents/ClassicalGuitarLessons/lilypond/Anonymous-in-19th-Century-Spagnoletta.ly:82:6:7">
<g transform="translate(81.5897, 14.7483)">
<rect x="4.9750" y="-0.0250" width="0.0500" height="5.0500" ry="0.0250" fill="currentColor"/>
</g>
<g transform="translate(81.5897, 14.7483)">
<rect x="3.9750" y="-0.0250" width="0.0500" height="5.0500" ry="0.0250" fill="currentColor"/>
</g>
<g transform="translate(81.5897, 14.7483)">
<rect x="2.9750" y="-0.0250" width="0.0500" height="5.0500" ry="0.0250" fill="currentColor"/>
</g>
<g transform="translate(81.5897, 14.7483)">
<rect x="1.9750" y="-0.0250" width="0.0500" height="5.0500" ry="0.0250" fill="currentColor"/>
</g>
<g transform="translate(81.5897, 14.7483)">
<rect x="0.9750" y="-0.0250" width="0.0500" height="5.0500" ry="0.0250" fill="currentColor"/>
</g>
<g transform="translate(81.5897, 14.7483)">
<rect x="-0.0250" y="-0.0250" width="0.0500" height="5.0500" ry="0.0250" fill="currentColor"/>
</g>
<g transform="translate(81.5897, 14.7483)">
<line stroke-linejoin="round" stroke-linecap="round" stroke-width="0.0500" stroke="currentColor" x1="0.0000" y1="0.0000" x2="5.0000" y2="0.0000"/>
</g>
<g transform="translate(81.5897, 14.7483)">
<line stroke-linejoin="round" stroke-linecap="round" stroke-width="0.0500" stroke="currentColor" x1="0.0000" y1="1.0000" x2="5.0000" y2="1.0000"/>
</g>
<g transform="translate(81.5897, 14.7483)">
<line stroke-linejoin="round" stroke-linecap="round" stroke-width="0.0500" stroke="currentColor" x1="0.0000" y1="2.0000" x2="5.0000" y2="2.0000"/>
</g>
<g transform="translate(81.5897, 14.7483)">
<line stroke-linejoin="round" stroke-linecap="round" stroke-width="0.0500" stroke="currentColor" x1="0.0000" y1="3.0000" x2="5.0000" y2="3.0000"/>
</g>
<g transform="translate(81.5897, 14.7483)">
<line stroke-linejoin="round" stroke-linecap="round" stroke-width="0.0500" stroke="currentColor" x1="0.0000" y1="4.0000" x2="5.0000" y2="4.0000"/>
</g>
<g transform="translate(81.5897, 17.3483)">
<circle stroke-linejoin="round" stroke-linecap="round" fill="currentColor" stroke="currentColor" stroke-width="0.0500" r="0.2500"/>
</g>
<g transform="translate(81.1629, 21.0279)">
<text font-family="sans-serif" font-size="1.3198" text-anchor="start" fill="currentColor">
<tspan>3</tspan>
</text>
</g>
<g transform="translate(82.5897, 16.3483)">
<circle stroke-linejoin="round" stroke-linecap="round" fill="currentColor" stroke="currentColor" stroke-width="0.0500" r="0.2500"/>
</g>
<g transform="translate(82.1629, 21.0279)">
<text font-family="sans-serif" font-size="1.3198" text-anchor="start" fill="currentColor">
<tspan>2</tspan>
</text>
</g>
<g transform="translate(86.5897, 15.3483)">
<circle stroke-linejoin="round" stroke-linecap="round" fill="currentColor" stroke="currentColor" stroke-width="0.0500" r="0.2500"/>
</g>
<g transform="translate(86.1629, 21.0111)">
<text font-family="sans-serif" font-size="1.3198" text-anchor="start" fill="currentColor">
<tspan>1</tspan>
</text>
</g>
<g transform="translate(81.5897, 14.7483)">
<rect x="-0.0250" y="-0.1250" width="5.0500" height="0.1500" ry="0.0250" fill="currentColor"/>
</g>
<g transform="translate(83.2483, 14.4100)">
<text font-family="sans-serif" font-size="0.8803" text-anchor="start" fill="currentColor">
<tspan>O</tspan>
</text>
</g>
<g transform="translate(84.2483, 14.4100)">
<text font-family="sans-serif" font-size="0.8803" text-anchor="start" fill="currentColor">
<tspan>O</tspan>
</text>
</g>
<g transform="translate(85.2483, 14.4100)">
<text font-family="sans-serif" font-size="0.8803" text-anchor="start" fill="currentColor">
<tspan>O</tspan>
</text>
</g>
</a>
<a style="color:inherit;" xlink:href="textedit:///Users/wwang/Documents/ClassicalGuitarLessons/lilypond/Anonymous-in-19th-Century-Spagnoletta.ly:95:4:5">
<g transform="translate(82.9190, 22.5928)">
<path transform="scale(0.0040, -0.0040)" d="M314 65c0 23 -19 41 -42 41c-39 0 -204 -110 -231 -143c-7 -8 -10 -18 -10 -28c0 -23 19 -41 42 -41c39 0 203 110 230 143c7 8 11 18 11 28zM262 136c41 0 82 -14 82 -71c0 -26 -16 -112 -74 -151c-25 -17 -87 -50 -187 -50c-41 0 -83 14 -83 71c0 26 16 112 74 151
c25 17 88 50 188 50z" fill="currentColor"/>
</g>
</a>
<g transform="translate(82.9840, 24.5928)">
<rect x="-0.0650" y="-1.7410" width="0.1300" height="3.2410" ry="0.0400" fill="currentColor"/>
</g>
<a style="color:inherit;" xlink:href="textedit:///Users/wwang/Documents/ClassicalGuitarLessons/lilypond/Anonymous-in-19th-Century-Spagnoletta.ly:95:7:8">
<g transform="translate(88.4734, 23.0928)">
<path transform="scale(0.0040, -0.0040)" d="M218 136c66 0 108 -36 108 -89c0 -89 -113 -183 -218 -183c-66 0 -108 36 -108 89c0 89 113 183 218 183z" fill="currentColor"/>
</g>
</a>
<g transform="translate(88.5384, 24.5928)">
<rect x="-0.0650" y="-1.3139" width="0.1300" height="3.3139" ry="0.0400" fill="currentColor"/>
</g>
<g transform="translate(107.5487, 24.5928)">
<rect x="-0.0650" y="-1.2410" width="0.1300" height="3.2410" ry="0.0400" fill="currentColor"/>
</g>
<a style="color:inherit;" xlink:href="textedit:///Users/wwang/Documents/ClassicalGuitarLessons/lilypond/Anonymous-in-19th-Century-Spagnoletta.ly:63:4:5">
<g transform="translate(93.6485, 13.2197)">
<text font-family="sans-serif" font-size="2.6163" text-anchor="start" fill="currentColor">
<tspan>G</tspan>
</text>
</g>
<g transform="translate(95.6630, 12.0305)">
<text font-family="sans-serif" font-size="1.8500" text-anchor="start" fill="currentColor">
<tspan>7</tspan>
</text>
</g>
</a>
<a style="color:inherit;" xlink:href="textedit:///Users/wwang/Documents/ClassicalGuitarLessons/lilypond/Anonymous-in-19th-Century-Spagnoletta.ly:83:6:7">
<g transform="translate(92.3192, 14.7483)">
<rect x="4.9750" y="-0.0250" width="0.0500" height="5.0500" ry="0.0250" fill="currentColor"/>
</g>
<g transform="translate(92.3192, 14.7483)">
<rect x="3.9750" y="-0.0250" width="0.0500" height="5.0500" ry="0.0250" fill="currentColor"/>
</g>
<g transform="translate(92.3192, 14.7483)">
<rect x="2.9750" y="-0.0250" width="0.0500" height="5.0500" ry="0.0250" fill="currentColor"/>
</g>
<g transform="translate(92.3192, 14.7483)">
<rect x="1.9750" y="-0.0250" width="0.0500" height="5.0500" ry="0.0250" fill="currentColor"/>
</g>
<g transform="translate(92.3192, 14.7483)">
<rect x="0.9750" y="-0.0250" width="0.0500" height="5.0500" ry="0.0250" fill="currentColor"/>
</g>
<g transform="translate(92.3192, 14.7483)">
<rect x="-0.0250" y="-0.0250" width="0.0500" height="5.0500" ry="0.0250" fill="currentColor"/>
</g>
<g transform="translate(92.3192, 14.7483)">
<line stroke-linejoin="round" stroke-linecap="round" stroke-width="0.0500" stroke="currentColor" x1="0.0000" y1="0.0000" x2="5.0000" y2="0.0000"/>
</g>
<g transform="translate(92.3192, 14.7483)">
<line stroke-linejoin="round" stroke-linecap="round" stroke-width="0.0500" stroke="currentColor" x1="0.0000" y1="1.0000" x2="5.0000" y2="1.0000"/>
</g>
<g transform="translate(92.3192, 14.7483)">
<line stroke-linejoin="round" stroke-linecap="round" stroke-width="0.0500" stroke="currentColor" x1="0.0000" y1="2.0000" x2="5.0000" y2="2.0000"/>
</g>
<g transform="translate(92.3192, 14.7483)">
<line stroke-linejoin="round" stroke-linecap="round" stroke-width="0.0500" stroke="currentColor" x1="0.0000" y1="3.0000" x2="5.0000" y2="3.0000"/>
</g>
<g transform="translate(92.3192, 14.7483)">
<line stroke-linejoin="round" stroke-linecap="round" stroke-width="0.0500" stroke="currentColor" x1="0.0000" y1="4.0000" x2="5.0000" y2="4.0000"/>
</g>
<g transform="translate(92.3192, 17.3483)">
<circle stroke-linejoin="round" stroke-linecap="round" fill="currentColor" stroke="currentColor" stroke-width="0.0500" r="0.2500"/>
</g>
<g transform="translate(91.8924, 21.0279)">
<text font-family="sans-serif" font-size="1.3198" text-anchor="start" fill="currentColor">
<tspan>3</tspan>
</text>
</g>
<g transform="translate(93.3192, 16.3483)">
<circle stroke-linejoin="round" stroke-linecap="round" fill="currentColor" stroke="currentColor" stroke-width="0.0500" r="0.2500"/>
</g>
<g transform="translate(92.8924, 21.0279)">
<text font-family="sans-serif" font-size="1.3198" text-anchor="start" fill="currentColor">
<tspan>2</tspan>
</text>
</g>
<g transform="translate(97.3192, 15.3483)">
<circle stroke-linejoin="round" stroke-linecap="round" fill="currentColor" stroke="currentColor" stroke-width="0.0500" r="0.2500"/>
</g>
<g transform="translate(96.8924, 21.0111)">
<text font-family="sans-serif" font-size="1.3198" text-anchor="start" fill="currentColor">
<tspan>1</tspan>
</text>
</g>
<g transform="translate(92.3192, 14.7483)">
<rect x="-0.0250" y="-0.1250" width="5.0500" height="0.1500" ry="0.0250" fill="currentColor"/>
</g>
<g transform="translate(93.9778, 14.4100)">
<text font-family="sans-serif" font-size="0.8803" text-anchor="start" fill="currentColor">
<tspan>O</tspan>
</text>
</g>
<g transform="translate(94.9778, 14.4100)">
<text font-family="sans-serif" font-size="0.8803" text-anchor="start" fill="currentColor">
<tspan>O</tspan>
</text>
</g>
<g transform="translate(95.9778, 14.4100)">
<text font-family="sans-serif" font-size="0.8803" text-anchor="start" fill="currentColor">
<tspan>O</tspan>
</text>
</g>
</a>
<a style="color:inherit;" xlink:href="textedit:///Users/wwang/Documents/ClassicalGuitarLessons/lilypond/Anonymous-in-19th-Century-Spagnoletta.ly:96:4:5">
<g transform="translate(93.6485, 23.5928)">
<path transform="scale(0.0040, -0.0040)" d="M218 136c66 0 108 -36 108 -89c0 -89 -113 -183 -218 -183c-66 0 -108 36 -108 89c0 89 113 183 218 183z" fill="currentColor"/>
</g>
</a>
<g transform="translate(95.4027, 23.0928)">
<path transform="scale(0.0040, -0.0040)" d="M0 0c0 31 25 56 56 56s56 -25 56 -56s-25 -56 -56 -56s-56 25 -56 56z" fill="currentColor"/>
</g>
<g transform="translate(93.7135, 24.5928)">
<rect x="-0.0650" y="-0.8139" width="0.1300" height="3.3139" ry="0.0400" fill="currentColor"/>
</g>
<g transform="translate(109.3110, 23.0928)">
<path transform="scale(0.0040, -0.0040)" d="M0 0c0 31 25 56 56 56s56 -25 56 -56s-25 -56 -56 -56s-56 25 -56 56z" fill="currentColor"/>
</g>
<a style="color:inherit;" xlink:href="textedit:///Users/wwang/Documents/ClassicalGuitarLessons/lilypond/Anonymous-in-19th-Century-Spagnoletta.ly:96:8:9">
<g transform="translate(98.5519, 24.0928)">
<path transform="scale(0.0040, -0.0040)" d="M218 136c66 0 108 -36 108 -89c0 -89 -113 -183 -218 -183c-66 0 -108 36 -108 89c0 89 113 183 218 183z" fill="currentColor"/>
</g>
</a>
<g transform="translate(98.6169, 24.5928)">
<rect x="-0.0650" y="-0.3139" width="0.1300" height="3.3139" ry="0.0400" fill="currentColor"/>
</g>
<g transform="translate(98.6819, 27.5528)">
<path transform="scale(0.0040, -0.0040)" d="M0 0h-16v250h16v-250zM0 0v250c97 59 224 148 224 259c0 57 -15 112 -40 163c-3 16 10 27 23 27c7 0 15 -3 20 -11c25 -56 40 -117 40 -179c0 -203 -267 -306 -267 -509z" fill="currentColor"/>
</g>
<a style="color:inherit;" xlink:href="textedit:///Users/wwang/Documents/ClassicalGuitarLessons/lilypond/Anonymous-in-19th-Century-Spagnoletta.ly:96:11:12">
<g transform="translate(101.2484, 23.5928)">
<path transform="scale(0.0040, -0.0040)" d="M218 136c66 0 108 -36 108 -89c0 -89 -113 -183 -218 -183c-66 0 -108 36 -108 89c0 89 113 183 218 183z" fill="currentColor"/>
</g>
</a>
<g transform="translate(101.3134, 24.5928)">
<rect x="-0.0650" y="-0.8139" width="0.1300" height="3.3139" ry="0.0400" fill="currentColor"/>
</g>
<a style="color:inherit;" xlink:href="textedit:///Users/wwang/Documents/ClassicalGuitarLessons/lilypond/Anonymous-in-19th-Century-Spagnoletta.ly:64:4:5">
<g transform="translate(107.4837, 13.2197)">
<text font-family="sans-serif" font-size="2.6163" text-anchor="start" fill="currentColor">
<tspan>C</tspan>
</text>
</g>
</a>
<a style="color:inherit;" xlink:href="textedit:///Users/wwang/Documents/ClassicalGuitarLessons/lilypond/Anonymous-in-19th-Century-Spagnoletta.ly:84:6:7">
<g transform="translate(106.0963, 14.7483)">
<rect x="4.9750" y="-0.0250" width="0.0500" height="5.0500" ry="0.0250" fill="currentColor"/>
</g>
<g transform="translate(106.0963, 14.7483)">
<rect x="3.9750" y="-0.0250" width="0.0500" height="5.0500" ry="0.0250" fill="currentColor"/>
</g>
<g transform="translate(106.0963, 14.7483)">
<rect x="2.9750" y="-0.0250" width="0.0500" height="5.0500" ry="0.0250" fill="currentColor"/>
</g>
<g transform="translate(106.0963, 14.7483)">
<rect x="1.9750" y="-0.0250" width="0.0500" height="5.0500" ry="0.0250" fill="currentColor"/>
</g>
<g transform="translate(106.0963, 14.7483)">
<rect x="0.9750" y="-0.0250" width="0.0500" height="5.0500" ry="0.0250" fill="currentColor"/>
</g>
<g transform="translate(106.0963, 14.7483)">
<rect x="-0.0250" y="-0.0250" width="0.0500" height="5.0500" ry="0.0250" fill="currentColor"/>
</g>
<g transform="translate(106.0963, 14.7483)">
<line stroke-linejoin="round" stroke-linecap="round" stroke-width="0.0500" stroke="currentColor" x1="0.0000" y1="0.0000" x2="5.0000" y2="0.0000"/>
</g>
<g transform="translate(106.0963, 14.7483)">
<line stroke-linejoin="round" stroke-linecap="round" stroke-width="0.0500" stroke="currentColor" x1="0.0000" y1="1.0000" x2="5.0000" y2="1.0000"/>
</g>
<g transform="translate(106.0963, 14.7483)">
<line stroke-linejoin="round" stroke-linecap="round" stroke-width="0.0500" stroke="currentColor" x1="0.0000" y1="2.0000" x2="5.0000" y2="2.0000"/>
</g>
<g transform="translate(106.0963, 14.7483)">
<line stroke-linejoin="round" stroke-linecap="round" stroke-width="0.0500" stroke="currentColor" x1="0.0000" y1="3.0000" x2="5.0000" y2="3.0000"/>
</g>
<g transform="translate(106.0963, 14.7483)">
<line stroke-linejoin="round" stroke-linecap="round" stroke-width="0.0500" stroke="currentColor" x1="0.0000" y1="4.0000" x2="5.0000" y2="4.0000"/>
</g>
<g transform="translate(107.0963, 17.3483)">
<circle stroke-linejoin="round" stroke-linecap="round" fill="currentColor" stroke="currentColor" stroke-width="0.0500" r="0.2500"/>
</g>
<g transform="translate(106.6696, 21.0279)">
<text font-family="sans-serif" font-size="1.3198" text-anchor="start" fill="currentColor">
<tspan>3</tspan>
</text>
</g>
<g transform="translate(108.0963, 16.3483)">
<circle stroke-linejoin="round" stroke-linecap="round" fill="currentColor" stroke="currentColor" stroke-width="0.0500" r="0.2500"/>
</g>
<g transform="translate(107.6696, 21.0279)">
<text font-family="sans-serif" font-size="1.3198" text-anchor="start" fill="currentColor">
<tspan>2</tspan>
</text>
</g>
<g transform="translate(110.0963, 15.3483)">
<circle stroke-linejoin="round" stroke-linecap="round" fill="currentColor" stroke="currentColor" stroke-width="0.0500" r="0.2500"/>
</g>
<g transform="translate(109.6696, 21.0111)">
<text font-family="sans-serif" font-size="1.3198" text-anchor="start" fill="currentColor">
<tspan>1</tspan>
</text>
</g>
<g transform="translate(106.0963, 14.7483)">
<rect x="-0.0250" y="-0.1250" width="5.0500" height="0.1500" ry="0.0250" fill="currentColor"/>
</g>
<g transform="translate(105.7891, 14.4100)">
<text font-family="sans-serif" font-size="0.8803" text-anchor="start" fill="currentColor">
<tspan>X</tspan>
</text>
</g>
<g transform="translate(108.7549, 14.4100)">
<text font-family="sans-serif" font-size="0.8803" text-anchor="start" fill="currentColor">
<tspan>O</tspan>
</text>
</g>
<g transform="translate(110.7549, 14.4100)">
<text font-family="sans-serif" font-size="0.8803" text-anchor="start" fill="currentColor">
<tspan>O</tspan>
</text>
</g>
</a>
<a style="color:inherit;" xlink:href="textedit:///Users/wwang/Documents/ClassicalGuitarLessons/lilypond/Anonymous-in-19th-Century-Spagnoletta.ly:97:4:5">
<g transform="translate(107.4837, 23.0928)">
<path transform="scale(0.0040, -0.0040)" d="M314 65c0 23 -19 41 -42 41c-39 0 -204 -110 -231 -143c-7 -8 -10 -18 -10 -28c0 -23 19 -41 42 -41c39 0 203 110 230 143c7 8 11 18 11 28zM262 136c41 0 82 -14 82 -71c0 -26 -16 -112 -74 -151c-25 -17 -87 -50 -187 -50c-41 0 -83 14 -83 71c0 26 16 112 74 151
c25 17 88 50 188 50z" fill="currentColor"/>
</g>
</a>
<g transform="translate(111.9710, 36.0928)">
<path transform="scale(0.0040, -0.0040)" d="M0 0c0 31 25 56 56 56s56 -25 56 -56s-25 -56 -56 -56s-56 25 -56 56z" fill="currentColor"/>
</g>
<g transform="translate(111.9710, 37.0928)">
<path transform="scale(0.0040, -0.0040)" d="M0 0c0 31 25 56 56 56s56 -25 56 -56s-25 -56 -56 -56s-56 25 -56 56z" fill="currentColor"/>
</g>
<g transform="translate(113.2110, 36.5928)">
<rect x="0.0000" y="-2.0000" width="0.6000" height="4.0000" ry="0.0000" fill="currentColor"/>
</g>
<g transform="translate(112.7210, 36.5928)">
<rect x="0.0000" y="-2.0000" width="0.1900" height="4.0000" ry="0.0000" fill="currentColor"/>
</g>
<g transform="translate(5.6906, 38.5928)">
<line stroke-linejoin="round" stroke-linecap="round" stroke-width="0.1000" stroke="currentColor" x1="0.0500" y1="0" x2="108.0705" y2="0"/>
</g>
<g transform="translate(5.6906, 37.5928)">
<line stroke-linejoin="round" stroke-linecap="round" stroke-width="0.1000" stroke="currentColor" x1="0.0500" y1="0" x2="108.0705" y2="0"/>
</g>
<g transform="translate(5.6906, 36.5928)">
<line stroke-linejoin="round" stroke-linecap="round" stroke-width="0.1000" stroke="currentColor" x1="0.0500" y1="0" x2="108.0705" y2="0"/>
</g>
<g transform="translate(5.6906, 35.5928)">
<line stroke-linejoin="round" stroke-linecap="round" stroke-width="0.1000" stroke="currentColor" x1="0.0500" y1="0" x2="108.0705" y2="0"/>
</g>
<g transform="translate(5.6906, 34.5928)">
<line stroke-linejoin="round" stroke-linecap="round" stroke-width="0.1000" stroke="currentColor" x1="0.0500" y1="0" x2="108.0705" y2="0"/>
</g>
<g transform="translate(106.6446, 36.5928)">
<rect x="0.0000" y="-2.0000" width="0.1900" height="4.0000" ry="0.0000" fill="currentColor"/>
</g>
<g transform="translate(96.1486, 36.5928)">
<rect x="0.0000" y="-2.0000" width="0.1900" height="4.0000" ry="0.0000" fill="currentColor"/>
</g>
<g transform="translate(81.6840, 36.5928)">
<rect x="0.0000" y="-2.0000" width="0.1900" height="4.0000" ry="0.0000" fill="currentColor"/>
</g>
<g transform="translate(69.1521, 36.5928)">
<rect x="0.0000" y="-2.0000" width="0.1900" height="4.0000" ry="0.0000" fill="currentColor"/>
</g>
<g transform="translate(57.3448, 36.5928)">
<rect x="0.0000" y="-2.0000" width="0.1900" height="4.0000" ry="0.0000" fill="currentColor"/>
</g>
<g transform="translate(49.0430, 36.5928)">
<rect x="0.0000" y="-2.0000" width="0.1900" height="4.0000" ry="0.0000" fill="currentColor"/>
</g>
<g transform="translate(36.4540, 36.5928)">
<rect x="0.0000" y="-2.0000" width="0.1900" height="4.0000" ry="0.0000" fill="currentColor"/>
</g>
<g transform="translate(25.9580, 36.5928)">
<rect x="0.0000" y="-2.0000" width="0.1900" height="4.0000" ry="0.0000" fill="currentColor"/>
</g>
<g transform="translate(16.6368, 36.0928)">
<path transform="scale(0.0040, -0.0040)" d="M0 0c0 31 25 56 56 56s56 -25 56 -56s-25 -56 -56 -56s-56 25 -56 56z" fill="currentColor"/>
</g>
<g transform="translate(16.6368, 37.0928)">
<path transform="scale(0.0040, -0.0040)" d="M0 0c0 31 25 56 56 56s56 -25 56 -56s-25 -56 -56 -56s-56 25 -56 56z" fill="currentColor"/>
</g>
<g transform="translate(16.1468, 36.5928)">
<rect x="0.0000" y="-2.0000" width="0.1900" height="4.0000" ry="0.0000" fill="currentColor"/>
</g>
<g transform="translate(15.2468, 36.5928)">
<rect x="0.0000" y="-2.0000" width="0.6000" height="4.0000" ry="0.0000" fill="currentColor"/>
</g>
<g transform="translate(4.8028, 33.5190)">
<text font-family="serif" font-size="1.7461" text-anchor="start" fill="currentColor">
<tspan>9</tspan>
</text>
</g>
<g transform="translate(64.0560, 38.4028)">
<polygon stroke-linejoin="round" stroke-linecap="round" stroke-width="0.0800" fill="currentColor" stroke="currentColor" points="2.7386 -0.0100 2.7386 0.3900 0.0400 0.2000 0.0400 -0.2000"/>
</g>
<a style="color:inherit;" xlink:href="textedit:///Users/wwang/Documents/ClassicalGuitarLessons/lilypond/Anonymous-in-19th-Century-Spagnoletta.ly:65:4:5">
<g transform="translate(11.4906, 34.0058)">
<text font-family="sans-serif" font-size="2.6163" text-anchor="start" fill="currentColor">
<tspan>C</tspan>
</text>
</g>
</a>
<a style="color:inherit;" xlink:href="textedit:///Users/wwang/Documents/ClassicalGuitarLessons/lilypond/Anonymous-in-19th-Century-Spagnoletta.ly:98:4:5">
<g transform="translate(11.4906, 35.0928)">
<path transform="scale(0.0040, -0.0040)" d="M218 136c66 0 108 -36 108 -89c0 -89 -113 -183 -218 -183c-66 0 -108 36 -108 89c0 89 113 183 218 183z" fill="currentColor"/>
</g>
</a>
<g transform="translate(11.5556, 36.5928)">
<rect x="-0.0650" y="-1.3139" width="0.1300" height="3.3139" ry="0.0400" fill="currentColor"/>
</g>
<a style="color:inherit;" xlink:href="textedit:///Users/wwang/Documents/ClassicalGuitarLessons/lilypond/Anonymous-in-19th-Century-Spagnoletta.ly:100:7:8">
<g transform="translate(18.1731, 36.0928)">
<path transform="scale(0.0040, -0.0040)" d="M218 136c66 0 108 -36 108 -89c0 -89 -113 -183 -218 -183c-66 0 -108 36 -108 89c0 89 113 183 218 183z" fill="currentColor"/>
</g>
</a>
<g transform="translate(6.4906, 37.5928)">
<path transform="scale(0.0040, -0.0040)" d="M266 -635h-6c-108 0 -195 88 -195 197c0 58 53 103 112 103c54 0 95 -47 95 -103c0 -52 -43 -95 -95 -95c-11 0 -21 2 -31 6c26 -39 68 -65 117 -65h4zM461 -203c68 24 113 90 113 164c0 90 -66 179 -173 190c19 -89 48 -242 60 -354zM74 28c0 -145 141 -247 264 -247
c1 0 47 0 82 6c-7 64 -29 203 -63 364c-79 -8 -124 -61 -124 -119c0 -44 25 -91 81 -123c5 -5 7 -10 7 -15c0 -11 -10 -22 -22 -22c-15 0 -126 62 -126 187c0 88 58 174 160 197c-14 58 -29 117 -46 175c-107 -121 -213 -243 -213 -403zM250 553c-29 96 -52 170 -52 346
c0 115 55 224 149 292c6 5 14 5 20 0c68 -80 133 -245 133 -358c0 -143 -86 -255 -180 -364c21 -68 39 -138 56 -207c2 0 7 1 13 1c155 0 256 -128 256 -261c0 -113 -74 -212 -180 -246c3 -35 5 -70 5 -105c0 -19 -1 -39 -2 -58c-7 -119 -88 -225 -202 -228l1 43
c93 2 153 92 159 191c1 18 2 37 2 55c0 31 -1 61 -4 92c-5 -1 -44 -8 -89 -8c-193 0 -333 180 -333 374c0 177 131 306 248 441zM428 916c0 34 1 66 -20 129c-99 -48 -162 -149 -162 -259c0 -52 12 -115 36 -194c80 97 146 198 146 324z" fill="currentColor"/>
</g>
<g transform="translate(18.2381, 36.5928)">
<rect x="-0.0650" y="-0.3139" width="0.1300" height="3.3139" ry="0.0400" fill="currentColor"/>
</g>
<a style="color:inherit;" xlink:href="textedit:///Users/wwang/Documents/ClassicalGuitarLessons/lilypond/Anonymous-in-19th-Century-Spagnoletta.ly:100:10:11">
<g transform="translate(22.1661, 35.5928)">
<path transform="scale(0.0040, -0.0040)" d="M218 136c66 0 108 -36 108 -89c0 -89 -113 -183 -218 -183c-66 0 -108 36 -108 89c0 89 113 183 218 183z" fill="currentColor"/>
</g>
</a>
<g transform="translate(22.2311, 36.5928)">
<rect x="-0.0650" y="-0.8139" width="0.1300" height="3.3139" ry="0.0400" fill="currentColor"/>
</g>
<a style="color:inherit;" xlink:href="textedit:///Users/wwang/Documents/ClassicalGuitarLessons/lilypond/Anonymous-in-19th-Century-Spagnoletta.ly:66:4:5">
<g transform="translate(27.2873, 34.0058)">
<text font-family="sans-serif" font-size="2.6163" text-anchor="start" fill="currentColor">
<tspan>C</tspan>
</text>
</g>
</a>
<a style="color:inherit;" xlink:href="textedit:///Users/wwang/Documents/ClassicalGuitarLessons/lilypond/Anonymous-in-19th-Century-Spagnoletta.ly:101:7:8">
<g transform="translate(27.2873, 35.0928)">
<path transform="scale(0.0040, -0.0040)" d="M314 65c0 23 -19 41 -42 41c-39 0 -204 -110 -231 -143c-7 -8 -10 -18 -10 -28c0 -23 19 -41 42 -41c39 0 203 110 230 143c7 8 11 18 11 28zM262 136c41 0 82 -14 82 -71c0 -26 -16 -112 -74 -151c-25 -17 -87 -50 -187 -50c-41 0 -83 14 -83 71c0 26 16 112 74 151
c25 17 88 50 188 50z" fill="currentColor"/>
</g>
</a>
<g transform="translate(27.3523, 36.5928)">
<rect x="-0.0650" y="-1.2410" width="0.1300" height="3.2410" ry="0.0400" fill="currentColor"/>
</g>
<a style="color:inherit;" xlink:href="textedit:///Users/wwang/Documents/ClassicalGuitarLessons/lilypond/Anonymous-in-19th-Century-Spagnoletta.ly:101:10:11">
<g transform="translate(32.6977, 35.0928)">
<path transform="scale(0.0040, -0.0040)" d="M218 136c66 0 108 -36 108 -89c0 -89 -113 -183 -218 -183c-66 0 -108 36 -108 89c0 89 113 183 218 183z" fill="currentColor"/>
</g>
</a>
<g transform="translate(32.7627, 36.5928)">
<rect x="-0.0650" y="-1.3139" width="0.1300" height="3.3139" ry="0.0400" fill="currentColor"/>
</g>
<a style="color:inherit;" xlink:href="textedit:///Users/wwang/Documents/ClassicalGuitarLessons/lilypond/Anonymous-in-19th-Century-Spagnoletta.ly:67:4:5">
<g transform="translate(37.7875, 34.0058)">
<text font-family="sans-serif" font-size="2.6163" text-anchor="start" fill="currentColor">
<tspan>C</tspan>
</text>
</g>
</a>
<a style="color:inherit;" xlink:href="textedit:///Users/wwang/Documents/ClassicalGuitarLessons/lilypond/Anonymous-in-19th-Century-Spagnoletta.ly:102:7:8">
<g transform="translate(37.7875, 35.0928)">
<path transform="scale(0.0040, -0.0040)" d="M218 136c66 0 108 -36 108 -89c0 -89 -113 -183 -218 -183c-66 0 -108 36 -108 89c0 89 113 183 218 183z" fill="currentColor"/>
</g>
</a>
<g transform="translate(39.5417, 35.0928)">
<path transform="scale(0.0040, -0.0040)" d="M0 0c0 31 25 56 56 56s56 -25 56 -56s-25 -56 -56 -56s-56 25 -56 56z" fill="currentColor"/>
</g>
<g transform="translate(37.8525, 36.5928)">
<rect x="-0.0650" y="-1.3139" width="0.1300" height="3.3139" ry="0.0400" fill="currentColor"/>
</g>
<a style="color:inherit;" xlink:href="textedit:///Users/wwang/Documents/ClassicalGuitarLessons/lilypond/Anonymous-in-19th-Century-Spagnoletta.ly:102:11:12">
<g transform="translate(42.5668, 35.5928)">
<path transform="scale(0.0040, -0.0040)" d="M218 136c66 0 108 -36 108 -89c0 -89 -113 -183 -218 -183c-66 0 -108 36 -108 89c0 89 113 183 218 183z" fill="currentColor"/>
</g>
</a>
<g transform="translate(42.6318, 36.5928)">
<rect x="-0.0650" y="-0.8139" width="0.1300" height="3.3139" ry="0.0400" fill="currentColor"/>
</g>
<g transform="translate(42.6968, 39.0528)">
<path transform="scale(0.0040, -0.0040)" d="M0 0h-16v250h16v-250zM0 0v250c97 59 224 148 224 259c0 57 -15 112 -40 163c-3 16 10 27 23 27c7 0 15 -3 20 -11c25 -56 40 -117 40 -179c0 -203 -267 -306 -267 -509z" fill="currentColor"/>
</g>
<a style="color:inherit;" xlink:href="textedit:///Users/wwang/Documents/ClassicalGuitarLessons/lilypond/Anonymous-in-19th-Century-Spagnoletta.ly:102:14:15">
<g transform="translate(45.2154, 36.0928)">
<path transform="scale(0.0040, -0.0040)" d="M218 136c66 0 108 -36 108 -89c0 -89 -113 -183 -218 -183c-66 0 -108 36 -108 89c0 89 113 183 218 183z" fill="currentColor"/>
</g>
</a>
<g transform="translate(45.2804, 36.5928)">
<rect x="-0.0650" y="-0.3139" width="0.1300" height="3.3139" ry="0.0400" fill="currentColor"/>
</g>
<a style="color:inherit;" xlink:href="textedit:///Users/wwang/Documents/ClassicalGuitarLessons/lilypond/Anonymous-in-19th-Century-Spagnoletta.ly:68:4:5">
<g transform="translate(51.3438, 34.0058)">
<text font-family="sans-serif" font-size="2.6163" text-anchor="start" fill="currentColor">
<tspan>G</tspan>
</text>
</g>
<g transform="translate(53.3582, 32.8166)">
<text font-family="sans-serif" font-size="1.8500" text-anchor="start" fill="currentColor">
<tspan>7</tspan>
</text>
</g>
</a>
<a style="color:inherit;" xlink:href="textedit:///Users/wwang/Documents/ClassicalGuitarLessons/lilypond/Anonymous-in-19th-Century-Spagnoletta.ly:103:7:8">
<g transform="translate(51.3438, 35.5928)">
<path transform="scale(0.0040, -0.0040)" d="M314 65c0 23 -19 41 -42 41c-39 0 -204 -110 -231 -143c-7 -8 -10 -18 -10 -28c0 -23 19 -41 42 -41c39 0 203 110 230 143c7 8 11 18 11 28zM262 136c41 0 82 -14 82 -71c0 -26 -16 -112 -74 -151c-25 -17 -87 -50 -187 -50c-41 0 -83 14 -83 71c0 26 16 112 74 151
c25 17 88 50 188 50z" fill="currentColor"/>
</g>
</a>
<g transform="translate(53.1711, 35.0928)">
<path transform="scale(0.0040, -0.0040)" d="M0 0c0 31 25 56 56 56s56 -25 56 -56s-25 -56 -56 -56s-56 25 -56 56z" fill="currentColor"/>
</g>
<g transform="translate(51.4088, 36.5928)">
<rect x="-0.0650" y="-0.7410" width="0.1300" height="3.2410" ry="0.0400" fill="currentColor"/>
</g>
<a style="color:inherit;" xlink:href="textedit:///Users/wwang/Documents/ClassicalGuitarLessons/lilypond/Anonymous-in-19th-Century-Spagnoletta.ly:69:4:5">
<g transform="translate(58.6456, 34.0058)">
<text font-family="sans-serif" font-size="2.6163" text-anchor="start" fill="currentColor">
<tspan>G</tspan>
</text>
</g>
<g transform="translate(60.6600, 32.8166)">
<text font-family="sans-serif" font-size="1.8500" text-anchor="start" fill="currentColor">
<tspan>7</tspan>
</text>
</g>
</a>
<a style="color:inherit;" xlink:href="textedit:///Users/wwang/Documents/ClassicalGuitarLessons/lilypond/Anonymous-in-19th-Century-Spagnoletta.ly:104:7:8">
<g transform="translate(58.6456, 35.5928)">
<path transform="scale(0.0040, -0.0040)" d="M314 65c0 23 -19 41 -42 41c-39 0 -204 -110 -231 -143c-7 -8 -10 -18 -10 -28c0 -23 19 -41 42 -41c39 0 203 110 230 143c7 8 11 18 11 28zM262 136c41 0 82 -14 82 -71c0 -26 -16 -112 -74 -151c-25 -17 -87 -50 -187 -50c-41 0 -83 14 -83 71c0 26 16 112 74 151
c25 17 88 50 188 50z" fill="currentColor"/>
</g>
</a>
<g transform="translate(107.6746, 31.6091)">
<g>
<path transform="scale(0.0025, -0.0025)" d="M191 487c16 0 30 14 41 14c12 0 23 -14 23 -31v-343c0 -46 35 -85 80 -85c14 0 20 -11 20 -21s-6 -21 -20 -21c-48 0 -96 13 -144 13s-95 -13 -143 -13c-14 0 -21 11 -21 21s7 21 21 21c45 0 79 39 79 85v143c0 22 -15 34 -29 34c-7 0 -13 -3 -17 -10l-34 -68
c-5 -10 -14 -14 -23 -14c-14 0 -27 10 -27 25c0 4 1 9 3 13l127 250c2 4 6 6 10 6c17 0 37 -19 54 -19z" fill="currentColor"/>

<path transform="translate(0.9560, 0.0000) scale(0.0025, -0.0025)" d="M0 53c0 29 24 53 53 53s53 -24 53 -53s-24 -53 -53 -53s-53 24 -53 53z" fill="currentColor"/>
</g>
</g>
<g transform="translate(106.6446, 29.8339)">
<line stroke-linejoin="round" stroke-linecap="round" stroke-width="0.1600" stroke="currentColor" x1="7.0864" y1="-0.0000" x2="7.0864" y2="2.0000"/>
</g>
<g transform="translate(106.6446, 29.8339)">
<line stroke-linejoin="round" stroke-linecap="round" stroke-width="0.1600" stroke="currentColor" x1="0.1100" y1="-0.0000" x2="0.1100" y2="2.0000"/>
</g>
<g transform="translate(106.6446, 29.8339)">
<line stroke-linejoin="round" stroke-linecap="round" stroke-width="0.1600" stroke="currentColor" x1="0.1100" y1="-0.0000" x2="7.0864" y2="-0.0000"/>
</g>
<g transform="translate(58.7106, 36.5928)">
<rect x="-0.0650" y="-0.7410" width="0.1300" height="3.2410" ry="0.0400" fill="currentColor"/>
</g>
<a style="color:inherit;" xlink:href="textedit:///Users/wwang/Documents/ClassicalGuitarLessons/lilypond/Anonymous-in-19th-Century-Spagnoletta.ly:104:10:11">
<g transform="translate(64.0560, 35.0928)">
<path transform="scale(0.0040, -0.0040)" d="M218 136c66 0 108 -36 108 -89c0 -89 -113 -183 -218 -183c-66 0 -108 36 -108 89c0 89 113 183 218 183z" fill="currentColor"/>
</g>
</a>
<g transform="translate(64.1210, 36.5928)">
<rect x="-0.0650" y="-1.3139" width="0.1300" height="3.1283" ry="0.0400" fill="currentColor"/>
</g>
<a style="color:inherit;" xlink:href="textedit:///Users/wwang/Documents/ClassicalGuitarLessons/lilypond/Anonymous-in-19th-Century-Spagnoletta.ly:104:13:14">
<g transform="translate(66.7046, 35.5928)">
<path transform="scale(0.0040, -0.0040)" d="M218 136c66 0 108 -36 108 -89c0 -89 -113 -183 -218 -183c-66 0 -108 36 -108 89c0 89 113 183 218 183z" fill="currentColor"/>
</g>
</a>
<g transform="translate(66.7696, 36.5928)">
<rect x="-0.0650" y="-0.8139" width="0.1300" height="2.8094" ry="0.0400" fill="currentColor"/>
</g>
<a style="color:inherit;" xlink:href="textedit:///Users/wwang/Documents/ClassicalGuitarLessons/lilypond/Anonymous-in-19th-Century-Spagnoletta.ly:70:4:5">
<g transform="translate(70.4285, 34.0058)">
<text font-family="sans-serif" font-size="2.6163" text-anchor="start" fill="currentColor">
<tspan>F</tspan>
</text>
</g>
</a>
<a style="color:inherit;" xlink:href="textedit:///Users/wwang/Documents/ClassicalGuitarLessons/lilypond/Anonymous-in-19th-Century-Spagnoletta.ly:105:7:8">
<g transform="translate(70.4285, 36.0928)">
<path transform="scale(0.0040, -0.0040)" d="M218 136c66 0 108 -36 108 -89c0 -89 -113 -183 -218 -183c-66 0 -108 36 -108 89c0 89 113 183 218 183z" fill="currentColor"/>
</g>
</a>
<g transform="translate(72.1827, 36.0928)">
<path transform="scale(0.0040, -0.0040)" d="M0 0c0 31 25 56 56 56s56 -25 56 -56s-25 -56 -56 -56s-56 25 -56 56z" fill="currentColor"/>
</g>
<g transform="translate(70.4935, 36.5928)">
<rect x="-0.0650" y="-0.3139" width="0.1300" height="3.3139" ry="0.0400" fill="currentColor"/>
</g>
<a style="color:inherit;" xlink:href="textedit:///Users/wwang/Documents/ClassicalGuitarLessons/lilypond/Anonymous-in-19th-Century-Spagnoletta.ly:105:11:12">
<g transform="translate(75.2078, 35.5928)">
<path transform="scale(0.0040, -0.0040)" d="M218 136c66 0 108 -36 108 -89c0 -89 -113 -183 -218 -183c-66 0 -108 36 -108 89c0 89 113 183 218 183z" fill="currentColor"/>
</g>
</a>
<g transform="translate(75.2728, 36.5928)">
<rect x="-0.0650" y="-0.8139" width="0.1300" height="3.3139" ry="0.0400" fill="currentColor"/>
</g>
<g transform="translate(75.3378, 39.0528)">
<path transform="scale(0.0040, -0.0040)" d="M0 0h-16v250h16v-250zM0 0v250c97 59 224 148 224 259c0 57 -15 112 -40 163c-3 16 10 27 23 27c7 0 15 -3 20 -11c25 -56 40 -117 40 -179c0 -203 -267 -306 -267 -509z" fill="currentColor"/>
</g>
<a style="color:inherit;" xlink:href="textedit:///Users/wwang/Documents/ClassicalGuitarLessons/lilypond/Anonymous-in-19th-Century-Spagnoletta.ly:105:14:15">
<g transform="translate(77.8564, 36.0928)">
<path transform="scale(0.0040, -0.0040)" d="M218 136c66 0 108 -36 108 -89c0 -89 -113 -183 -218 -183c-66 0 -108 36 -108 89c0 89 113 183 218 183z" fill="currentColor"/>
</g>
</a>
<g transform="translate(77.9214, 36.5928)">
<rect x="-0.0650" y="-0.3139" width="0.1300" height="3.3139" ry="0.0400" fill="currentColor"/>
</g>
<g transform="translate(108.0431, 36.5928)">
<rect x="-0.0650" y="-1.3139" width="0.1300" height="3.3139" ry="0.0400" fill="currentColor"/>
</g>
<a style="color:inherit;" xlink:href="textedit:///Users/wwang/Documents/ClassicalGuitarLessons/lilypond/Anonymous-in-19th-Century-Spagnoletta.ly:71:4:5">
<g transform="translate(82.9318, 34.0058)">
<text font-family="sans-serif" font-size="2.6163" text-anchor="start" fill="currentColor">
<tspan>E</tspan>
</text>
</g>
</a>
<a style="color:inherit;" xlink:href="textedit:///Users/wwang/Documents/ClassicalGuitarLessons/lilypond/Anonymous-in-19th-Century-Spagnoletta.ly:106:7:8">
<g transform="translate(82.9318, 36.5928)">
<path transform="scale(0.0040, -0.0040)" d="M218 136c66 0 108 -36 108 -89c0 -89 -113 -183 -218 -183c-66 0 -108 36 -108 89c0 89 113 183 218 183z" fill="currentColor"/>
</g>
</a>
<g transform="translate(84.6860, 36.0928)">
<path transform="scale(0.0040, -0.0040)" d="M0 0c0 31 25 56 56 56s56 -25 56 -56s-25 -56 -56 -56s-56 25 -56 56z" fill="currentColor"/>
</g>
<g transform="translate(82.9968, 36.5928)">
<rect x="-0.0650" y="0.1861" width="0.1300" height="3.1472" ry="0.0400" fill="currentColor"/>
</g>
<a style="color:inherit;" xlink:href="textedit:///Users/wwang/Documents/ClassicalGuitarLessons/lilypond/Anonymous-in-19th-Century-Spagnoletta.ly:106:11:12">
<g transform="translate(87.6929, 37.0928)">
<path transform="scale(0.0040, -0.0040)" d="M218 136c66 0 108 -36 108 -89c0 -89 -113 -183 -218 -183c-66 0 -108 36 -108 89c0 89 113 183 218 183z" fill="currentColor"/>
</g>
</a>
<g transform="translate(88.9321, 36.5928)">
<rect x="-0.0650" y="-3.0000" width="0.1300" height="3.3139" ry="0.0400" fill="currentColor"/>
</g>
<g transform="translate(88.9971, 33.6328)">
<path transform="scale(0.0040, -0.0040)" d="M0 0v-250h-16v250h16zM0 0c0 -197 207 -336 207 -533c0 -71 -15 -141 -41 -207c-5 -8 -13 -12 -20 -12c-13 0 -26 11 -23 27c26 61 42 126 42 192c0 103 -94 208 -165 283v250z" fill="currentColor"/>
</g>
<a style="color:inherit;" xlink:href="textedit:///Users/wwang/Documents/ClassicalGuitarLessons/lilypond/Anonymous-in-19th-Century-Spagnoletta.ly:106:14:15">
<g transform="translate(91.9547, 37.5928)">
<path transform="scale(0.0040, -0.0040)" d="M218 136c66 0 108 -36 108 -89c0 -89 -113 -183 -218 -183c-66 0 -108 36 -108 89c0 89 113 183 218 183z" fill="currentColor"/>
</g>
</a>
<g transform="translate(93.1939, 36.5928)">
<rect x="-0.0650" y="-2.5000" width="0.1300" height="3.3139" ry="0.0400" fill="currentColor"/>
</g>
<g transform="translate(90.5047, 37.5928)">
<path transform="scale(0.0040, -0.0040)" d="M0 119c0 8 5 15 13 18l46 17v158c0 10 8 19 18 19s19 -9 19 -19v-145l83 31v158c0 10 9 19 19 19s18 -9 18 -19v-145l32 12c2 1 5 1 7 1c11 0 20 -9 20 -20v-60c0 -8 -5 -16 -13 -19l-46 -16v-160l32 11c2 1 5 1 7 1c11 0 20 -9 20 -20v-60c0 -8 -5 -15 -13 -18l-46 -17
v-158c0 -10 -8 -19 -18 -19s-19 9 -19 19v145l-83 -31v-158c0 -10 -9 -19 -19 -19s-18 9 -18 19v145l-32 -12c-2 -1 -5 -1 -7 -1c-11 0 -20 9 -20 20v60c0 8 5 16 13 19l46 16v160l-32 -11c-2 -1 -5 -1 -7 -1c-11 0 -20 9 -20 20v60zM179 95l-83 -30v-160l83 30v160z" fill="currentColor"/>
</g>
<a style="color:inherit;" xlink:href="textedit:///Users/wwang/Documents/ClassicalGuitarLessons/lilypond/Anonymous-in-19th-Century-Spagnoletta.ly:109:19:20">
<g transform="translate(107.9781, 35.0928)">
<path transform="scale(0.0040, -0.0040)" d="M218 136c66 0 108 -36 108 -89c0 -89 -113 -183 -218 -183c-66 0 -108 36 -108 89c0 89 113 183 218 183z" fill="currentColor"/>
</g>
</a>
<a style="color:inherit;" xlink:href="textedit:///Users/wwang/Documents/ClassicalGuitarLessons/lilypond/Anonymous-in-19th-Century-Spagnoletta.ly:72:4:5">
<g transform="translate(97.4780, 34.0058)">
<text font-family="sans-serif" font-size="2.6163" text-anchor="start" fill="currentColor">
<tspan>C</tspan>
</text>
</g>
</a>
<a style="color:inherit;" xlink:href="textedit:///Users/wwang/Documents/ClassicalGuitarLessons/lilypond/Anonymous-in-19th-Century-Spagnoletta.ly:107:7:8">
<g transform="translate(97.4780, 35.0928)">
<path transform="scale(0.0040, -0.0040)" d="M314 65c0 23 -19 41 -42 41c-39 0 -204 -110 -231 -143c-7 -8 -10 -18 -10 -28c0 -23 19 -41 42 -41c39 0 203 110 230 143c7 8 11 18 11 28zM262 136c41 0 82 -14 82 -71c0 -26 -16 -112 -74 -151c-25 -17 -87 -50 -187 -50c-41 0 -83 14 -83 71c0 26 16 112 74 151
c25 17 88 50 188 50z" fill="currentColor"/>
</g>
</a>
<g transform="translate(97.5430, 36.5928)">
<rect x="-0.0650" y="-1.2410" width="0.1300" height="3.2410" ry="0.0400" fill="currentColor"/>
</g>
<a style="color:inherit;" xlink:href="textedit:///Users/wwang/Documents/ClassicalGuitarLessons/lilypond/Anonymous-in-19th-Century-Spagnoletta.ly:73:4:5">
<g transform="translate(107.9781, 34.0058)">
<text font-family="sans-serif" font-size="2.6163" text-anchor="start" fill="currentColor">
<tspan>C</tspan>
</text>
</g>
</a>
<a style="color:inherit;" xlink:href="textedit:///Users/wwang/Documents/ClassicalGuitarLessons/lilypond/Anonymous-in-19th-Century-Spagnoletta.ly:107:19:20">
<g transform="translate(102.8884, 35.0928)">
<path transform="scale(0.0040, -0.0040)" d="M218 136c66 0 108 -36 108 -89c0 -89 -113 -183 -218 -183c-66 0 -108 36 -108 89c0 89 113 183 218 183z" fill="currentColor"/>
</g>
</a>
<g transform="translate(102.9534, 36.5928)">
<rect x="-0.0650" y="-1.3139" width="0.1300" height="3.3139" ry="0.0400" fill="currentColor"/>
</g>
<g transform="translate(113.2110, 48.5928)">
<rect x="0.0000" y="-2.0000" width="0.6000" height="4.0000" ry="0.0000" fill="currentColor"/>
</g>
<g transform="translate(112.7210, 48.5928)">
<rect x="0.0000" y="-2.0000" width="0.1900" height="4.0000" ry="0.0000" fill="currentColor"/>
</g>
<g transform="translate(5.6906, 50.5928)">
<line stroke-linejoin="round" stroke-linecap="round" stroke-width="0.1000" stroke="currentColor" x1="0.0500" y1="0" x2="108.0705" y2="0"/>
</g>
<g transform="translate(5.6906, 49.5928)">
<line stroke-linejoin="round" stroke-linecap="round" stroke-width="0.1000" stroke="currentColor" x1="0.0500" y1="0" x2="108.0705" y2="0"/>
</g>
<g transform="translate(5.6906, 48.5928)">
<line stroke-linejoin="round" stroke-linecap="round" stroke-width="0.1000" stroke="currentColor" x1="0.0500" y1="0" x2="108.0705" y2="0"/>
</g>
<g transform="translate(5.6906, 47.5928)">
<line stroke-linejoin="round" stroke-linecap="round" stroke-width="0.1000" stroke="currentColor" x1="0.0500" y1="0" x2="108.0705" y2="0"/>
</g>
<g transform="translate(5.6906, 46.5928)">
<line stroke-linejoin="round" stroke-linecap="round" stroke-width="0.1000" stroke="currentColor" x1="0.0500" y1="0" x2="108.0705" y2="0"/>
</g>
<g transform="translate(104.2128, 48.5928)">
<rect x="0.0000" y="-2.0000" width="0.1900" height="4.0000" ry="0.0000" fill="currentColor"/>
</g>
<g transform="translate(89.4813, 48.5928)">
<rect x="0.0000" y="-2.0000" width="0.1900" height="4.0000" ry="0.0000" fill="currentColor"/>
</g>
<g transform="translate(76.6824, 48.5928)">
<rect x="0.0000" y="-2.0000" width="0.1900" height="4.0000" ry="0.0000" fill="currentColor"/>
</g>
<g transform="translate(64.6058, 48.5928)">
<rect x="0.0000" y="-2.0000" width="0.1900" height="4.0000" ry="0.0000" fill="currentColor"/>
</g>
<g transform="translate(56.1338, 48.5928)">
<rect x="0.0000" y="-2.0000" width="0.1900" height="4.0000" ry="0.0000" fill="currentColor"/>
</g>
<g transform="translate(43.3350, 48.5928)">
<rect x="0.0000" y="-2.0000" width="0.1900" height="4.0000" ry="0.0000" fill="currentColor"/>
</g>
<g transform="translate(32.5768, 48.5928)">
<rect x="0.0000" y="-2.0000" width="0.1900" height="4.0000" ry="0.0000" fill="currentColor"/>
</g>
<g transform="translate(19.7780, 48.5928)">
<rect x="0.0000" y="-2.0000" width="0.1900" height="4.0000" ry="0.0000" fill="currentColor"/>
</g>
<g transform="translate(6.4906, 49.5928)">
<path transform="scale(0.0040, -0.0040)" d="M266 -635h-6c-108 0 -195 88 -195 197c0 58 53 103 112 103c54 0 95 -47 95 -103c0 -52 -43 -95 -95 -95c-11 0 -21 2 -31 6c26 -39 68 -65 117 -65h4zM461 -203c68 24 113 90 113 164c0 90 -66 179 -173 190c19 -89 48 -242 60 -354zM74 28c0 -145 141 -247 264 -247
c1 0 47 0 82 6c-7 64 -29 203 -63 364c-79 -8 -124 -61 -124 -119c0 -44 25 -91 81 -123c5 -5 7 -10 7 -15c0 -11 -10 -22 -22 -22c-15 0 -126 62 -126 187c0 88 58 174 160 197c-14 58 -29 117 -46 175c-107 -121 -213 -243 -213 -403zM250 553c-29 96 -52 170 -52 346
c0 115 55 224 149 292c6 5 14 5 20 0c68 -80 133 -245 133 -358c0 -143 -86 -255 -180 -364c21 -68 39 -138 56 -207c2 0 7 1 13 1c155 0 256 -128 256 -261c0 -113 -74 -212 -180 -246c3 -35 5 -70 5 -105c0 -19 -1 -39 -2 -58c-7 -119 -88 -225 -202 -228l1 43
c93 2 153 92 159 191c1 18 2 37 2 55c0 31 -1 61 -4 92c-5 -1 -44 -8 -89 -8c-193 0 -333 180 -333 374c0 177 131 306 248 441zM428 916c0 34 1 66 -20 129c-99 -48 -162 -149 -162 -259c0 -52 12 -115 36 -194c80 97 146 198 146 324z" fill="currentColor"/>
</g>
<g transform="translate(3.9151, 45.5190)">
<text font-family="serif" font-size="1.7461" text-anchor="start" fill="currentColor">
<tspan>17</tspan>
</text>
</g>
<g transform="translate(71.4967, 50.4028)">
<polygon stroke-linejoin="round" stroke-linecap="round" stroke-width="0.0800" fill="currentColor" stroke="currentColor" points="2.7834 -0.0100 2.7834 0.3900 0.0400 0.2000 0.0400 -0.2000"/>
</g>
<a style="color:inherit;" xlink:href="textedit:///Users/wwang/Documents/ClassicalGuitarLessons/lilypond/Anonymous-in-19th-Century-Spagnoletta.ly:110:18:19">
<g transform="translate(11.4906, 47.0928)">
<path transform="scale(0.0040, -0.0040)" d="M314 65c0 23 -19 41 -42 41c-39 0 -204 -110 -231 -143c-7 -8 -10 -18 -10 -28c0 -23 19 -41 42 -41c39 0 203 110 230 143c7 8 11 18 11 28zM262 136c41 0 82 -14 82 -71c0 -26 -16 -112 -74 -151c-25 -17 -87 -50 -187 -50c-41 0 -83 14 -83 71c0 26 16 112 74 151
c25 17 88 50 188 50z" fill="currentColor"/>
</g>
</a>
<g transform="translate(13.3179, 47.0928)">
<path transform="scale(0.0040, -0.0040)" d="M0 0c0 31 25 56 56 56s56 -25 56 -56s-25 -56 -56 -56s-56 25 -56 56z" fill="currentColor"/>
</g>
<g transform="translate(11.5556, 48.5928)">
<rect x="-0.0650" y="-1.2410" width="0.1300" height="3.2410" ry="0.0400" fill="currentColor"/>
</g>
<a style="color:inherit;" xlink:href="textedit:///Users/wwang/Documents/ClassicalGuitarLessons/lilypond/Anonymous-in-19th-Century-Spagnoletta.ly:113:4:5">
<g transform="translate(21.0712, 48.0928)">
<path transform="scale(0.0040, -0.0040)" d="M218 136c66 0 108 -36 108 -89c0 -89 -113 -183 -218 -183c-66 0 -108 36 -108 89c0 89 113 183 218 183z" fill="currentColor"/>
</g>
</a>
<g transform="translate(22.8254, 48.0928)">
<path transform="scale(0.0040, -0.0040)" d="M0 0c0 31 25 56 56 56s56 -25 56 -56s-25 -56 -56 -56s-56 25 -56 56z" fill="currentColor"/>
</g>
<g transform="translate(21.1362, 48.5928)">
<rect x="-0.0650" y="-0.3139" width="0.1300" height="3.3139" ry="0.0400" fill="currentColor"/>
</g>
<a style="color:inherit;" xlink:href="textedit:///Users/wwang/Documents/ClassicalGuitarLessons/lilypond/Anonymous-in-19th-Century-Spagnoletta.ly:113:8:9">
<g transform="translate(25.9663, 47.5928)">
<path transform="scale(0.0040, -0.0040)" d="M218 136c66 0 108 -36 108 -89c0 -89 -113 -183 -218 -183c-66 0 -108 36 -108 89c0 89 113 183 218 183z" fill="currentColor"/>
</g>
</a>
<g transform="translate(26.0313, 48.5928)">
<rect x="-0.0650" y="-0.8139" width="0.1300" height="3.3139" ry="0.0400" fill="currentColor"/>
</g>
<g transform="translate(26.0963, 51.0528)">
<path transform="scale(0.0040, -0.0040)" d="M0 0h-16v250h16v-250zM0 0v250c97 59 224 148 224 259c0 57 -15 112 -40 163c-3 16 10 27 23 27c7 0 15 -3 20 -11c25 -56 40 -117 40 -179c0 -203 -267 -306 -267 -509z" fill="currentColor"/>
</g>
<a style="color:inherit;" xlink:href="textedit:///Users/wwang/Documents/ClassicalGuitarLessons/lilypond/Anonymous-in-19th-Century-Spagnoletta.ly:113:11:12">
<g transform="translate(28.6596, 48.0928)">
<path transform="scale(0.0040, -0.0040)" d="M218 136c66 0 108 -36 108 -89c0 -89 -113 -183 -218 -183c-66 0 -108 36 -108 89c0 89 113 183 218 183z" fill="currentColor"/>
</g>
</a>
<g transform="translate(28.7246, 48.5928)">
<rect x="-0.0650" y="-0.3139" width="0.1300" height="3.3139" ry="0.0400" fill="currentColor"/>
</g>
<a style="color:inherit;" xlink:href="textedit:///Users/wwang/Documents/ClassicalGuitarLessons/lilypond/Anonymous-in-19th-Century-Spagnoletta.ly:114:4:5">
<g transform="translate(33.8373, 48.5928)">
<path transform="scale(0.0040, -0.0040)" d="M314 65c0 23 -19 41 -42 41c-39 0 -204 -110 -231 -143c-7 -8 -10 -18 -10 -28c0 -23 19 -41 42 -41c39 0 203 110 230 143c7 8 11 18 11 28zM262 136c41 0 82 -14 82 -71c0 -26 -16 -112 -74 -151c-25 -17 -87 -50 -187 -50c-41 0 -83 14 -83 71c0 26 16 112 74 151
c25 17 88 50 188 50z" fill="currentColor"/>
</g>
</a>
<g transform="translate(33.9023, 48.5928)">
<rect x="-0.0650" y="0.2590" width="0.1300" height="3.0743" ry="0.0400" fill="currentColor"/>
</g>
<a style="color:inherit;" xlink:href="textedit:///Users/wwang/Documents/ClassicalGuitarLessons/lilypond/Anonymous-in-19th-Century-Spagnoletta.ly:114:7:8">
<g transform="translate(39.3820, 48.5928)">
<path transform="scale(0.0040, -0.0040)" d="M218 136c66 0 108 -36 108 -89c0 -89 -113 -183 -218 -183c-66 0 -108 36 -108 89c0 89 113 183 218 183z" fill="currentColor"/>
</g>
</a>
<g transform="translate(39.4470, 48.5928)">
<rect x="-0.0650" y="0.1861" width="0.1300" height="3.1472" ry="0.0400" fill="currentColor"/>
</g>
<a style="color:inherit;" xlink:href="textedit:///Users/wwang/Documents/ClassicalGuitarLessons/lilypond/Anonymous-in-19th-Century-Spagnoletta.ly:115:4:5">
<g transform="translate(44.6281, 48.0928)">
<path transform="scale(0.0040, -0.0040)" d="M218 136c66 0 108 -36 108 -89c0 -89 -113 -183 -218 -183c-66 0 -108 36 -108 89c0 89 113 183 218 183z" fill="currentColor"/>
</g>
</a>
<g transform="translate(9.8956, 45.2229)">
<g>
<path transform="scale(0.0025, -0.0025)" d="M93 66c-60 0 -40 -66 -72 -66c-11 0 -21 7 -21 20c0 154 232 163 232 335c0 51 -18 103 -62 103c-31 0 -62 -13 -62 -41c0 -25 33 -39 33 -64c0 -35 -29 -63 -64 -63s-63 28 -63 63c0 83 71 147 156 147c97 0 189 -56 189 -145c0 -141 -133 -154 -227 -206
c86 0 115 -62 168 -62c45 0 29 41 57 41c11 0 21 -9 21 -21c0 -28 -47 -107 -143 -107c-92 0 -95 66 -142 66z" fill="currentColor"/>

<path transform="translate(0.9902, 0.0000) scale(0.0025, -0.0025)" d="M0 53c0 29 24 53 53 53s53 -24 53 -53s-24 -53 -53 -53s-53 24 -53 53z" fill="currentColor"/>
</g>
</g>
<g transform="translate(9.0556, 43.4628)">
<line stroke-linejoin="round" stroke-linecap="round" stroke-width="0.1600" stroke="currentColor" x1="10.8024" y1="-0.0000" x2="10.8024" y2="-0.0000"/>
</g>
<g transform="translate(9.0556, 43.4628)">
<line stroke-linejoin="round" stroke-linecap="round" stroke-width="0.1600" stroke="currentColor" x1="-0.0800" y1="-0.0000" x2="-0.0800" y2="2.0000"/>
</g>
<g transform="translate(9.0556, 43.4628)">
<line stroke-linejoin="round" stroke-linecap="round" stroke-width="0.1600" stroke="currentColor" x1="-0.0800" y1="-0.0000" x2="10.8024" y2="-0.0000"/>
</g>
<g transform="translate(46.3823, 48.0928)">
<path transform="scale(0.0040, -0.0040)" d="M0 0c0 31 25 56 56 56s56 -25 56 -56s-25 -56 -56 -56s-56 25 -56 56z" fill="currentColor"/>
</g>
<g transform="translate(44.6931, 48.5928)">
<rect x="-0.0650" y="-0.3139" width="0.1300" height="3.3139" ry="0.0400" fill="currentColor"/>
</g>
<a style="color:inherit;" xlink:href="textedit:///Users/wwang/Documents/ClassicalGuitarLessons/lilypond/Anonymous-in-19th-Century-Spagnoletta.ly:115:8:9">
<g transform="translate(49.5232, 47.5928)">
<path transform="scale(0.0040, -0.0040)" d="M218 136c66 0 108 -36 108 -89c0 -89 -113 -183 -218 -183c-66 0 -108 36 -108 89c0 89 113 183 218 183z" fill="currentColor"/>
</g>
</a>
<g transform="translate(49.5882, 48.5928)">
<rect x="-0.0650" y="-0.8139" width="0.1300" height="3.3139" ry="0.0400" fill="currentColor"/>
</g>
<g transform="translate(49.6532, 51.0528)">
<path transform="scale(0.0040, -0.0040)" d="M0 0h-16v250h16v-250zM0 0v250c97 59 224 148 224 259c0 57 -15 112 -40 163c-3 16 10 27 23 27c7 0 15 -3 20 -11c25 -56 40 -117 40 -179c0 -203 -267 -306 -267 -509z" fill="currentColor"/>
</g>
<a style="color:inherit;" xlink:href="textedit:///Users/wwang/Documents/ClassicalGuitarLessons/lilypond/Anonymous-in-19th-Century-Spagnoletta.ly:115:11:12">
<g transform="translate(52.2166, 48.0928)">
<path transform="scale(0.0040, -0.0040)" d="M218 136c66 0 108 -36 108 -89c0 -89 -113 -183 -218 -183c-66 0 -108 36 -108 89c0 89 113 183 218 183z" fill="currentColor"/>
</g>
</a>
<g transform="translate(52.2816, 48.5928)">
<rect x="-0.0650" y="-0.3139" width="0.1300" height="3.3139" ry="0.0400" fill="currentColor"/>
</g>
<a style="color:inherit;" xlink:href="textedit:///Users/wwang/Documents/ClassicalGuitarLessons/lilypond/Anonymous-in-19th-Century-Spagnoletta.ly:116:4:5">
<g transform="translate(58.4799, 47.0928)">
<path transform="scale(0.0040, -0.0040)" d="M314 65c0 23 -19 41 -42 41c-39 0 -204 -110 -231 -143c-7 -8 -10 -18 -10 -28c0 -23 19 -41 42 -41c39 0 203 110 230 143c7 8 11 18 11 28zM262 136c41 0 82 -14 82 -71c0 -26 -16 -112 -74 -151c-25 -17 -87 -50 -187 -50c-41 0 -83 14 -83 71c0 26 16 112 74 151
c25 17 88 50 188 50z" fill="currentColor"/>
</g>
</a>
<g transform="translate(60.3073, 47.0928)">
<path transform="scale(0.0040, -0.0040)" d="M0 0c0 31 25 56 56 56s56 -25 56 -56s-25 -56 -56 -56s-56 25 -56 56z" fill="currentColor"/>
</g>
<g transform="translate(58.5449, 48.5928)">
<rect x="-0.0650" y="-1.2410" width="0.1300" height="3.2410" ry="0.0400" fill="currentColor"/>
</g>
<a style="color:inherit;" xlink:href="textedit:///Users/wwang/Documents/ClassicalGuitarLessons/lilypond/Anonymous-in-19th-Century-Spagnoletta.ly:117:4:5">
<g transform="translate(65.9519, 47.0928)">
<path transform="scale(0.0040, -0.0040)" d="M314 65c0 23 -19 41 -42 41c-39 0 -204 -110 -231 -143c-7 -8 -10 -18 -10 -28c0 -23 19 -41 42 -41c39 0 203 110 230 143c7 8 11 18 11 28zM262 136c41 0 82 -14 82 -71c0 -26 -16 -112 -74 -151c-25 -17 -87 -50 -187 -50c-41 0 -83 14 -83 71c0 26 16 112 74 151
c25 17 88 50 188 50z" fill="currentColor"/>
</g>
</a>
<g transform="translate(66.0169, 48.5928)">
<rect x="-0.0650" y="-1.2410" width="0.1300" height="3.2410" ry="0.0400" fill="currentColor"/>
</g>
<a style="color:inherit;" xlink:href="textedit:///Users/wwang/Documents/ClassicalGuitarLessons/lilypond/Anonymous-in-19th-Century-Spagnoletta.ly:117:7:8">
<g transform="translate(71.4967, 47.0928)">
<path transform="scale(0.0040, -0.0040)" d="M218 136c66 0 108 -36 108 -89c0 -89 -113 -183 -218 -183c-66 0 -108 36 -108 89c0 89 113 183 218 183z" fill="currentColor"/>
</g>
</a>
<g transform="translate(71.5617, 48.5928)">
<rect x="-0.0650" y="-1.3139" width="0.1300" height="3.1283" ry="0.0400" fill="currentColor"/>
</g>
<a style="color:inherit;" xlink:href="textedit:///Users/wwang/Documents/ClassicalGuitarLessons/lilypond/Anonymous-in-19th-Century-Spagnoletta.ly:117:10:11">
<g transform="translate(74.1901, 47.5928)">
<path transform="scale(0.0040, -0.0040)" d="M218 136c66 0 108 -36 108 -89c0 -89 -113 -183 -218 -183c-66 0 -108 36 -108 89c0 89 113 183 218 183z" fill="currentColor"/>
</g>
</a>
<g transform="translate(74.2551, 48.5928)">
<rect x="-0.0650" y="-0.8139" width="0.1300" height="2.8095" ry="0.0400" fill="currentColor"/>
</g>
<g transform="translate(105.0737, 48.0928)">
<path transform="scale(0.0040, -0.0040)" d="M0 119c0 8 5 15 13 18l46 17v158c0 10 8 19 18 19s19 -9 19 -19v-145l83 31v158c0 10 9 19 19 19s18 -9 18 -19v-145l32 12c2 1 5 1 7 1c11 0 20 -9 20 -20v-60c0 -8 -5 -16 -13 -19l-46 -16v-160l32 11c2 1 5 1 7 1c11 0 20 -9 20 -20v-60c0 -8 -5 -15 -13 -18l-46 -17
v-158c0 -10 -8 -19 -18 -19s-19 9 -19 19v145l-83 -31v-158c0 -10 -9 -19 -19 -19s-18 9 -18 19v145l-32 -12c-2 -1 -5 -1 -7 -1c-11 0 -20 9 -20 20v60c0 8 5 16 13 19l46 16v160l-32 -11c-2 -1 -5 -1 -7 -1c-11 0 -20 9 -20 20v60zM179 95l-83 -30v-160l83 30v160z" fill="currentColor"/>
</g>
<a style="color:inherit;" xlink:href="textedit:///Users/wwang/Documents/ClassicalGuitarLessons/lilypond/Anonymous-in-19th-Century-Spagnoletta.ly:118:4:5">
<g transform="translate(77.9756, 48.0928)">
<path transform="scale(0.0040, -0.0040)" d="M218 136c66 0 108 -36 108 -89c0 -89 -113 -183 -218 -183c-66 0 -108 36 -108 89c0 89 113 183 218 183z" fill="currentColor"/>
</g>
</a>
<g transform="translate(79.7298, 48.0928)">
<path transform="scale(0.0040, -0.0040)" d="M0 0c0 31 25 56 56 56s56 -25 56 -56s-25 -56 -56 -56s-56 25 -56 56z" fill="currentColor"/>
</g>
<g transform="translate(78.0406, 48.5928)">
<rect x="-0.0650" y="-0.3139" width="0.1300" height="3.3139" ry="0.0400" fill="currentColor"/>
</g>
<a style="color:inherit;" xlink:href="textedit:///Users/wwang/Documents/ClassicalGuitarLessons/lilypond/Anonymous-in-19th-Century-Spagnoletta.ly:118:8:9">
<g transform="translate(82.8707, 47.5928)">
<path transform="scale(0.0040, -0.0040)" d="M218 136c66 0 108 -36 108 -89c0 -89 -113 -183 -218 -183c-66 0 -108 36 -108 89c0 89 113 183 218 183z" fill="currentColor"/>
</g>
</a>
<g transform="translate(82.9357, 48.5928)">
<rect x="-0.0650" y="-0.8139" width="0.1300" height="3.3139" ry="0.0400" fill="currentColor"/>
</g>
<g transform="translate(83.0007, 51.0528)">
<path transform="scale(0.0040, -0.0040)" d="M0 0h-16v250h16v-250zM0 0v250c97 59 224 148 224 259c0 57 -15 112 -40 163c-3 16 10 27 23 27c7 0 15 -3 20 -11c25 -56 40 -117 40 -179c0 -203 -267 -306 -267 -509z" fill="currentColor"/>
</g>
<a style="color:inherit;" xlink:href="textedit:///Users/wwang/Documents/ClassicalGuitarLessons/lilypond/Anonymous-in-19th-Century-Spagnoletta.ly:118:11:12">
<g transform="translate(85.5641, 48.0928)">
<path transform="scale(0.0040, -0.0040)" d="M218 136c66 0 108 -36 108 -89c0 -89 -113 -183 -218 -183c-66 0 -108 36 -108 89c0 89 113 183 218 183z" fill="currentColor"/>
</g>
</a>
<g transform="translate(85.6291, 48.5928)">
<rect x="-0.0650" y="-0.3139" width="0.1300" height="3.3139" ry="0.0400" fill="currentColor"/>
</g>
<a style="color:inherit;" xlink:href="textedit:///Users/wwang/Documents/ClassicalGuitarLessons/lilypond/Anonymous-in-19th-Century-Spagnoletta.ly:119:4:5">
<g transform="translate(90.7459, 48.5928)">
<path transform="scale(0.0040, -0.0040)" d="M218 136c66 0 108 -36 108 -89c0 -89 -113 -183 -218 -183c-66 0 -108 36 -108 89c0 89 113 183 218 183z" fill="currentColor"/>
</g>
</a>
<g transform="translate(92.5001, 48.0928)">
<path transform="scale(0.0040, -0.0040)" d="M0 0c0 31 25 56 56 56s56 -25 56 -56s-25 -56 -56 -56s-56 25 -56 56z" fill="currentColor"/>
</g>
<g transform="translate(90.8109, 48.5928)">
<rect x="-0.0650" y="0.1861" width="0.1300" height="3.1472" ry="0.0400" fill="currentColor"/>
</g>
<g transform="translate(106.5887, 48.5928)">
<rect x="-0.0650" y="-0.2410" width="0.1300" height="3.2410" ry="0.0400" fill="currentColor"/>
</g>
<a style="color:inherit;" xlink:href="textedit:///Users/wwang/Documents/ClassicalGuitarLessons/lilypond/Anonymous-in-19th-Century-Spagnoletta.ly:119:8:9">
<g transform="translate(95.6227, 49.0928)">
<path transform="scale(0.0040, -0.0040)" d="M218 136c66 0 108 -36 108 -89c0 -89 -113 -183 -218 -183c-66 0 -108 36 -108 89c0 89 113 183 218 183z" fill="currentColor"/>
</g>
</a>
<g transform="translate(96.8619, 48.5928)">
<rect x="-0.0650" y="-3.0000" width="0.1300" height="3.3139" ry="0.0400" fill="currentColor"/>
</g>
<g transform="translate(96.9269, 45.6328)">
<path transform="scale(0.0040, -0.0040)" d="M0 0v-250h-16v250h16zM0 0c0 -197 207 -336 207 -533c0 -71 -15 -141 -41 -207c-5 -8 -13 -12 -20 -12c-13 0 -26 11 -23 27c26 61 42 126 42 192c0 103 -94 208 -165 283v250z" fill="currentColor"/>
</g>
<g transform="translate(108.3511, 48.0928)">
<path transform="scale(0.0040, -0.0040)" d="M0 0c0 31 25 56 56 56s56 -25 56 -56s-25 -56 -56 -56s-56 25 -56 56z" fill="currentColor"/>
</g>
<a style="color:inherit;" xlink:href="textedit:///Users/wwang/Documents/ClassicalGuitarLessons/lilypond/Anonymous-in-19th-Century-Spagnoletta.ly:119:11:12">
<g transform="translate(99.9293, 49.5928)">
<path transform="scale(0.0040, -0.0040)" d="M218 136c66 0 108 -36 108 -89c0 -89 -113 -183 -218 -183c-66 0 -108 36 -108 89c0 89 113 183 218 183z" fill="currentColor"/>
</g>
</a>
<g transform="translate(101.1685, 48.5928)">
<rect x="-0.0650" y="-2.5000" width="0.1300" height="3.3139" ry="0.0400" fill="currentColor"/>
</g>
<g transform="translate(98.4793, 49.5928)">
<path transform="scale(0.0040, -0.0040)" d="M0 119c0 8 5 15 13 18l46 17v158c0 10 8 19 18 19s19 -9 19 -19v-145l83 31v158c0 10 9 19 19 19s18 -9 18 -19v-145l32 12c2 1 5 1 7 1c11 0 20 -9 20 -20v-60c0 -8 -5 -16 -13 -19l-46 -16v-160l32 11c2 1 5 1 7 1c11 0 20 -9 20 -20v-60c0 -8 -5 -15 -13 -18l-46 -17
v-158c0 -10 -8 -19 -18 -19s-19 9 -19 19v145l-83 -31v-158c0 -10 -9 -19 -19 -19s-18 9 -18 19v145l-32 -12c-2 -1 -5 -1 -7 -1c-11 0 -20 9 -20 20v60c0 8 5 16 13 19l46 16v160l-32 -11c-2 -1 -5 -1 -7 -1c-11 0 -20 9 -20 20v60zM179 95l-83 -30v-160l83 30v160z" fill="currentColor"/>
</g>
<a style="color:inherit;" xlink:href="textedit:///Users/wwang/Documents/ClassicalGuitarLessons/lilypond/Anonymous-in-19th-Century-Spagnoletta.ly:120:4:5">
<g transform="translate(106.5237, 48.0928)">
<path transform="scale(0.0040, -0.0040)" d="M314 65c0 23 -19 41 -42 41c-39 0 -204 -110 -231 -143c-7 -8 -10 -18 -10 -28c0 -23 19 -41 42 -41c39 0 203 110 230 143c7 8 11 18 11 28zM262 136c41 0 82 -14 82 -71c0 -26 -16 -112 -74 -151c-25 -17 -87 -50 -187 -50c-41 0 -83 14 -83 71c0 26 16 112 74 151
c25 17 88 50 188 50z" fill="currentColor"/>
</g>
</a>
<g transform="translate(40.5622, 160.0646)">
<text font-family="serif" font-size="2.2001" text-anchor="start" fill="currentColor">
<tspan>WW Youth Classical Guitar Group Practice</tspan>
</text>
</g>
<g transform="translate(24.0978, 163.0646)">
<a xlink:href="https://github.com/weinix/classical-guitar-lessons">
<rect x="0.0000" y="-0.3218" width="5.4288" height="1.5077" fill="none" stroke="none" stroke-width="0.0"/>
</a>
</g>
<g transform="translate(24.0978, 163.0646)">
<text font-family="sans-serif" font-weight="bold" font-size="1.5999" text-anchor="start" fill="currentColor">
<tspan>Group</tspan>
</text>
</g>
<g transform="translate(19.7103, 165.2646)">
<a xlink:href="https://github.com/weinix/classical-guitar-lessons">
<rect x="0.0000" y="-0.3304" width="14.2036" height="1.5460" fill="none" stroke="none" stroke-width="0.0"/>
</a>
</g>
<g transform="translate(19.7103, 165.2646)">
<text font-family="sans-serif" font-weight="bold" font-size="1.5999" text-anchor="start" fill="currentColor">
<tspan>Practice Project</tspan>
</text>
</g>
<g color="rgb(50.0000%, 50.0000%, 50.0000%)">
<g transform="translate(34.5140, 163.0646)">
<rect x="0.0000" y="-1.4000" width="1.0000" height="3.9000" ry="0.0000" fill="currentColor"/>
</g>
</g>
<g transform="translate(36.1140, 163.0646)">
<text font-family="sans-serif" font-size="1.5999" text-anchor="start" fill="currentColor">
<tspan>Typeset using </tspan>
</text>
</g>
<g transform="translate(47.6203, 163.0646)">
<a xlink:href="http://www.lilypond.org">
<rect x="0.0000" y="-0.3218" width="6.6579" height="1.5373" fill="none" stroke="none" stroke-width="0.0"/>
</a>
</g>
<g transform="translate(47.6203, 163.0646)">
<text font-family="sans-serif" font-size="1.5999" text-anchor="start" fill="currentColor">
<tspan>LilyPond</tspan>
</text>
</g>
<g transform="translate(54.2782, 163.0646)">
<text font-family="sans-serif" font-size="1.5999" text-anchor="start" fill="currentColor">
<tspan> 2006 by Wei Wang.</tspan>
</text>
</g>
<g transform="translate(36.1140, 165.2646)">
<text font-family="sans-serif" font-size="1.5999" text-anchor="start" fill="currentColor">
<tspan>This work is licensed under a </tspan>
</text>
</g>
<g transform="translate(59.9118, 165.2646)">
<a xlink:href="http://creativecommons.org/about/pdm">
<rect x="0.0000" y="-0.3218" width="33.2897" height="1.5373" fill="none" stroke="none" stroke-width="0.0"/>
</a>
</g>
<g transform="translate(59.9118, 165.2646)">
<text font-family="sans-serif" font-size="1.5999" text-anchor="start" fill="currentColor">
<tspan>WW Youth Classical Guitar Group Practice</tspan>
</text>
</g>
<g transform="translate(93.2016, 165.2646)">
<text font-family="sans-serif" font-size="1.5999" text-anchor="start" fill="currentColor">
<tspan> license.</tspan>
</text>
</g>
</svg>
